<?xml version="1.0" encoding="UTF-8"?>
<svg version="1.1" xmlns="http://www.w3.org/2000/svg" width="559" height="447">
<path d="M0 0 C11.6099992 4.21152194 27.02917675 12.77306662 32.578125 24.4609375 C32.78953125 25.16605469 33.0009375 25.87117188 33.21875 26.59765625 C33.87875 26.59765625 34.53875 26.59765625 35.21875 26.59765625 C47.0865319 46.85910441 52.10616779 67.26597659 46.15625 90.53515625 C40.77920693 109.64767425 28.55059743 125.55938283 11.74609375 136.19140625 C-2.05654435 143.87139035 -16.13028154 146.84370594 -31.78125 147.59765625 C-31.78125 148.25765625 -31.78125 148.91765625 -31.78125 149.59765625 C-47.17861966 153.19517253 -63.93955612 149.83741044 -77.78125 142.59765625 C-95.80735481 131.19166478 -108.90180503 114.30675756 -113.6472168 93.36889648 C-117.80092625 72.42005464 -113.52416238 52.8102499 -102.78125 34.59765625 C-100.04214509 30.94551637 -97.04765673 27.78439453 -93.78125 24.59765625 C-92.9975 23.79328125 -92.21375 22.98890625 -91.40625 22.16015625 C-90.54 21.31453125 -89.67375 20.46890625 -88.78125 19.59765625 C-87.853125 18.66953125 -86.925 17.74140625 -85.96875 16.78515625 C-71.46848796 4.53275143 -53.12640266 0.98144605 -34.78125 0.59765625 C-34.78125 -0.39234375 -34.78125 -1.38234375 -34.78125 -2.40234375 C-25.34405341 -7.12094205 -9.51148686 -3.12854397 0 0 Z M-18.78125 2.59765625 C-15.66032609 4.67827219 -12.69732845 5.89143382 -9.21875 7.28515625 C-2.18882525 10.1962626 4.52416185 13.7626562 9.86328125 19.3046875 C11.14773915 20.82773216 11.14773915 20.82773216 13.21875 20.59765625 C13.47269531 21.16871094 13.72664063 21.73976563 13.98828125 22.328125 C15.36183918 24.86157629 17.00421953 26.74654988 18.90625 28.91015625 C24.04579828 35.17721055 27.06350115 42.20254176 30.21875 49.59765625 C30.54875 49.59765625 30.87875 49.59765625 31.21875 49.59765625 C30.90811741 42.60842309 27.73224239 37.52339715 24.21875 31.59765625 C23.70054687 30.66179687 23.18234375 29.7259375 22.6484375 28.76171875 C22.17664063 28.04757813 21.70484375 27.3334375 21.21875 26.59765625 C20.55875 26.59765625 19.89875 26.59765625 19.21875 26.59765625 C18.99316406 25.86546875 18.76757812 25.13328125 18.53515625 24.37890625 C14.80806887 16.50446644 4.84703577 11.2966069 -2.78125 7.59765625 C-3.71453125 7.13230469 -4.6478125 6.66695312 -5.609375 6.1875 C-11.90107329 3.12522728 -11.90107329 3.12522728 -18.78125 2.59765625 Z M-52.78125 18.59765625 C-53.63332031 18.77039063 -54.48539062 18.943125 -55.36328125 19.12109375 C-70.05635051 22.77655848 -83.69583943 33.9742802 -91.78125 46.59765625 C-92.56822266 47.81195313 -92.56822266 47.81195313 -93.37109375 49.05078125 C-102.01808311 63.51176101 -103.08484972 81.70204963 -99.21875 97.91015625 C-97.25213001 105.44153389 -93.82018738 111.9719837 -89.78125 118.59765625 C-89.12125 118.59765625 -88.46125 118.59765625 -87.78125 118.59765625 C-87.51570313 119.17773438 -87.25015625 119.7578125 -86.9765625 120.35546875 C-81.31770196 130.97045551 -69.81246789 138.5476234 -58.78125 142.59765625 C-56.49871099 142.36409644 -56.49871099 142.36409644 -54.78125 141.59765625 C-56.24884766 140.85322266 -56.24884766 140.85322266 -57.74609375 140.09375 C-68.82553659 134.3899306 -77.92424032 128.45355252 -85.78125 118.59765625 C-86.22082031 118.07945312 -86.66039062 117.56125 -87.11328125 117.02734375 C-97.32461842 104.12540028 -99.24169511 88.45743238 -98.78125 72.59765625 C-97.1553314 75.03653414 -96.29556267 76.68323091 -95.37109375 79.37109375 C-90.82948453 92.08481758 -85.27917296 103.6360147 -74.78125 112.59765625 C-74.12125 112.59765625 -73.46125 112.59765625 -72.78125 112.59765625 C-72.78125 113.25765625 -72.78125 113.91765625 -72.78125 114.59765625 C-57.80189352 126.46719387 -39.78124952 131.95614678 -20.78125 130.59765625 C-16.95332682 129.95014686 -13.4278966 128.91544755 -9.78125 127.59765625 C-8.95367187 127.31921875 -8.12609375 127.04078125 -7.2734375 126.75390625 C10.13655509 120.42299985 22.05038354 107.92164736 29.9609375 91.5 C32.2156612 86.29733009 33.57706605 81.3307131 33.21875 75.59765625 C32.55875 75.26765625 31.89875 74.93765625 31.21875 74.59765625 C30.46020508 72.91455078 30.46020508 72.91455078 29.73828125 70.73046875 C29.46483887 69.93213623 29.19139648 69.13380371 28.90966797 68.3112793 C28.61979004 67.45703369 28.32991211 66.60278809 28.03125 65.72265625 C25.29229382 57.9733615 22.16746245 51.22410292 17.21875 44.59765625 C16.47625 43.56640625 15.73375 42.53515625 14.96875 41.47265625 C8.60241777 34.81694528 1.25854144 29.09392215 -6.78125 24.59765625 C-7.69583984 24.06205078 -7.69583984 24.06205078 -8.62890625 23.515625 C-22.14980702 16.10272868 -37.99342907 15.45453426 -52.78125 18.59765625 Z M31.21875 49.59765625 C31.27933594 50.30148438 31.33992187 51.0053125 31.40234375 51.73046875 C32.07705281 59.68165546 32.66528403 67.63716699 33.21875 75.59765625 C33.54875 75.59765625 33.87875 75.59765625 34.21875 75.59765625 C34.27324228 72.76405781 34.31265733 69.9315314 34.34375 67.09765625 C34.36050781 66.30617188 34.37726563 65.5146875 34.39453125 64.69921875 C34.43864226 59.31767546 33.72469058 54.76765698 32.21875 49.59765625 C31.88875 49.59765625 31.55875 49.59765625 31.21875 49.59765625 Z M-51.78125 143.59765625 C-46.90331417 146.84961347 -42.55733621 146.71091284 -36.78125 146.59765625 C-36.78125 146.26765625 -36.78125 145.93765625 -36.78125 145.59765625 C-38.34241819 145.25814006 -39.90526338 144.92633081 -41.46875 144.59765625 C-42.33886719 144.41203125 -43.20898438 144.22640625 -44.10546875 144.03515625 C-46.71837964 143.60793578 -49.13938038 143.52149424 -51.78125 143.59765625 Z " fill="#133F66" transform="translate(312.78125,77.40234375)"/>
<path d="M0 0 C4.22276037 2.81517358 8.31836602 5.99821492 11.8125 9.6875 C11.8125 10.3475 11.8125 11.0075 11.8125 11.6875 C12.4725 11.6875 13.1325 11.6875 13.8125 11.6875 C19.63109642 20.91324245 22.3284537 28.62358453 22.8125 39.6875 C22.86664063 40.8425 22.92078125 41.9975 22.9765625 43.1875 C22.83668313 55.49688485 17.34983414 66.42913013 9 75.3125 C-3.03265514 86.27476557 -15.42138855 88.55190643 -31.18701172 87.83544922 C-42.92374979 86.96744052 -53.03405684 80.93024677 -61.0078125 72.48828125 C-68.67149985 62.64085503 -72.77762765 52.27688986 -72.1875 39.6875 C-72.13335937 38.45 -72.07921875 37.2125 -72.0234375 35.9375 C-71.18165248 26.38421888 -68.22792277 19.67940027 -63.1875 11.6875 C-62.5275 11.6875 -61.8675 11.6875 -61.1875 11.6875 C-60.94902344 11.10871094 -60.71054688 10.52992187 -60.46484375 9.93359375 C-55.83610758 1.79437877 -45.00132683 -3.36142357 -36.29467773 -5.85449219 C-23.70619873 -8.59067416 -10.99375524 -6.38483477 0 0 Z M-43.1875 24.6875 C-43.43089551 27.58633083 -43.43089551 27.58633083 -43.3125 30.8125 C-43.29445313 31.90820312 -43.27640625 33.00390625 -43.2578125 34.1328125 C-43.23460937 34.97585937 -43.21140625 35.81890625 -43.1875 36.6875 C-40.44244537 38.06002731 -38.18422588 37.81979255 -35.125 37.8125 C-34.04089844 37.81507813 -32.95679688 37.81765625 -31.83984375 37.8203125 C-29.26506602 37.98868564 -29.26506602 37.98868564 -28.1875 36.6875 C-28.06235072 34.71130553 -28.0117724 32.73011827 -28 30.75 C-27.98582031 29.66847656 -27.97164063 28.58695313 -27.95703125 27.47265625 C-27.89701969 24.54705685 -27.89701969 24.54705685 -30.1875 22.6875 C-32.78666083 22.36800269 -32.78666083 22.36800269 -35.6875 22.4375 C-36.6671875 22.43234375 -37.646875 22.4271875 -38.65625 22.421875 C-41.35638152 22.43674955 -41.35638152 22.43674955 -43.1875 24.6875 Z M-20.1875 43.6875 C-22.33303377 46.90580065 -22.48333868 47.95536507 -22.5 51.6875 C-22.51675781 52.55375 -22.53351563 53.42 -22.55078125 54.3125 C-22.35621152 56.71071946 -22.35621152 56.71071946 -20.984375 58.48046875 C-18.59284502 60.08695302 -16.98614402 60.0547789 -14.125 60 C-13.24714844 59.99613281 -12.36929688 59.99226563 -11.46484375 59.98828125 C-8.99087231 59.89649334 -8.99087231 59.89649334 -7.1875 57.6875 C-6.86758294 54.85879751 -6.86758294 54.85879751 -6.9375 51.6875 C-6.93234375 50.615 -6.9271875 49.5425 -6.921875 48.4375 C-6.90722351 45.54387822 -6.90722351 45.54387822 -9.1875 43.6875 C-11.78524919 43.33001135 -11.78524919 43.33001135 -14.6875 43.375 C-15.6671875 43.35824219 -16.646875 43.34148437 -17.65625 43.32421875 C-18.4915625 43.44410156 -19.326875 43.56398437 -20.1875 43.6875 Z " fill="#105087" transform="translate(304.1875,110.3125)"/>
<path d="M0 0 C1.93166016 0.01740234 1.93166016 0.01740234 3.90234375 0.03515625 C5.19269531 0.04417969 6.48304688 0.05320312 7.8125 0.0625 C8.81152344 0.07410156 9.81054688 0.08570313 10.83984375 0.09765625 C14.2351351 6.63776665 17.21119852 13.2159221 19.83984375 20.09765625 C20.73565652 22.43099748 21.63149044 24.76433059 22.52734375 27.09765625 C22.94371094 28.19078125 23.36007812 29.28390625 23.7890625 30.41015625 C24.76047091 33.01458445 24.76047091 33.01458445 25.83984375 35.09765625 C26.16984375 23.54765625 26.49984375 11.99765625 26.83984375 0.09765625 C31.12984375 0.09765625 35.41984375 0.09765625 39.83984375 0.09765625 C39.83984375 24.51765625 39.83984375 48.93765625 39.83984375 74.09765625 C35.21984375 74.09765625 30.59984375 74.09765625 25.83984375 74.09765625 C22.4644823 67.53445342 19.47200024 60.98858278 16.83984375 54.09765625 C15.94403098 51.76431502 15.04819706 49.43098191 14.15234375 47.09765625 C13.73597656 46.00453125 13.31960938 44.91140625 12.890625 43.78515625 C11.91921659 41.18072805 11.91921659 41.18072805 10.83984375 39.09765625 C10.50984375 50.64765625 10.17984375 62.19765625 9.83984375 74.09765625 C5.54984375 74.09765625 1.25984375 74.09765625 -3.16015625 74.09765625 C-5.05137739 72.20643511 -4.28798243 68.90174053 -4.28955078 66.390625 C-4.2913031 65.68982819 -4.29305542 64.98903137 -4.29486084 64.26699829 C-4.29927891 61.93969276 -4.29634154 59.61246261 -4.29296875 57.28515625 C-4.2936418 55.67472316 -4.29461184 54.06429016 -4.29586792 52.45385742 C-4.29734483 49.0743717 -4.29519056 45.69491235 -4.29052734 42.31542969 C-4.28483005 37.9738912 -4.2881091 33.63241452 -4.29409981 29.2908783 C-4.29770561 25.96414724 -4.29656675 22.63743095 -4.29397202 19.31069946 C-4.2933028 17.70944207 -4.29413099 16.10818335 -4.29645157 14.50692749 C-4.29897841 12.27281114 -4.2951371 10.03879625 -4.28955078 7.8046875 C-4.28875519 6.53085205 -4.28795959 5.2570166 -4.28713989 3.94458008 C-4.1085857 -0.05853533 -4.05503878 0.12531022 0 0 Z " fill="#123D64" transform="translate(298.16015625,270.90234375)"/>
<path d="M0 0 C12.21 0 24.42 0 37 0 C42.57497635 5.57497635 42.57497635 5.57497635 42.69473267 10.46960449 C42.68461151 11.14994751 42.67449036 11.83029053 42.6640625 12.53125 C42.66884613 13.24478638 42.67362976 13.95832275 42.67855835 14.69348145 C42.6819481 16.19623022 42.67281008 17.69905366 42.65185547 19.20166016 C42.62506783 21.49419475 42.65162531 23.78183534 42.68359375 26.07421875 C42.68028948 27.53907324 42.67388286 29.0039247 42.6640625 30.46875 C42.67418365 31.14909302 42.68430481 31.82943604 42.69473267 32.53039551 C42.60183174 36.32740184 42.0491585 37.93785527 39.66552734 40.95117188 C36.49724167 43.38643963 34.90153322 43.45366665 31 43 C33.31900652 48.16201931 35.66041904 53.31017831 38.11328125 58.41015625 C38.47615234 59.16820557 38.83902344 59.92625488 39.21289062 60.70727539 C39.93988505 62.22308458 40.67158284 63.73664789 41.40820312 65.24780273 C44 70.66582725 44 70.66582725 44 74 C39.05 74 34.1 74 29 74 C24 64 19 54 14 44 C13.67 53.9 13.34 63.8 13 74 C8.71 74 4.42 74 0 74 C0 49.58 0 25.16 0 0 Z M13 12 C13 17.94 13 23.88 13 30 C17.95 30 22.9 30 28 30 C28.02684312 27.18743719 28.04676188 24.37512759 28.0625 21.5625 C28.07087891 20.76005859 28.07925781 19.95761719 28.08789062 19.13085938 C28.0965143 17.08704779 28.0522815 15.04316098 28 13 C26.86298403 11.63467451 26.86298403 11.63467451 23.83984375 11.90234375 C22.55207031 11.91394531 21.26429688 11.92554688 19.9375 11.9375 C16.5034375 11.9684375 16.5034375 11.9684375 13 12 Z " fill="#0E3A62" transform="translate(153,271)"/>
<path d="M0 0 C4.62 0 9.24 0 14 0 C14 20.13 14 40.26 14 61 C20.435 60.505 20.435 60.505 27 60 C27.33 40.2 27.66 20.4 28 0 C32.29 0 36.58 0 41 0 C41.06773718 9.07504517 41.1227936 18.14992285 41.15543652 27.22516346 C41.17110231 31.43902276 41.19235703 35.65270036 41.22631836 39.86645508 C41.25887957 43.93186419 41.27684613 47.99709836 41.28463173 52.06262779 C41.2901811 53.61481163 41.30101755 55.16698573 41.31719017 56.71909523 C41.33892207 58.89082259 41.3419688 61.06182424 41.34057617 63.23364258 C41.34723801 64.47052322 41.35389984 65.70740387 41.36076355 66.98176575 C41 70 41 70 39.66621399 71.86039734 C34.74401645 75.22692136 28.36101696 74.22364035 22.65820312 74.24023438 C20.63890274 74.24993322 18.62062388 74.28096756 16.6015625 74.3125 C14.6834375 74.32023437 14.6834375 74.32023437 12.7265625 74.328125 C11.55689941 74.3374707 10.38723633 74.34681641 9.18212891 74.35644531 C5.67409121 73.96349341 3.80682588 73.10240024 1 71 C-0.43872134 68.12255732 -0.11937153 65.65434078 -0.11352539 62.43896484 C-0.11367142 61.76567642 -0.11381744 61.092388 -0.1139679 60.3986969 C-0.11327027 58.16941119 -0.10548489 55.94020865 -0.09765625 53.7109375 C-0.09579154 52.16679937 -0.09436789 50.62266066 -0.09336853 49.07852173 C-0.08954754 45.01129528 -0.07972082 40.94410445 -0.06866455 36.87689209 C-0.05844144 32.7278288 -0.05386898 28.57875975 -0.04882812 24.4296875 C-0.03809819 16.28644015 -0.02050476 8.14322861 0 0 Z " fill="#123E64" transform="translate(224,271)"/>
<path d="M0 0 C4.29 0 8.58 0 13 0 C13 20.13 13 40.26 13 61 C17.62 61 22.24 61 27 61 C27 40.87 27 20.74 27 0 C31.62 0 36.24 0 41 0 C41.0903722 8.92738326 41.16375652 17.85446268 41.20724869 26.78219986 C41.22812288 30.9277267 41.25643685 35.07292434 41.30175781 39.21826172 C41.34522249 43.21885157 41.36913838 47.21912481 41.37950897 51.21993256 C41.38689931 52.74619277 41.40133111 54.27243568 41.42292023 55.7985611 C41.45196424 57.93672614 41.45595585 60.07358346 41.45410156 62.21191406 C41.46298401 63.4288092 41.47186646 64.64570435 41.48101807 65.8994751 C40.90671538 69.60128989 39.90941373 70.72665791 37 73 C32.80920324 75.09539838 27.34344852 74.1858582 22.73364258 74.18530273 C20.70567568 74.18748048 18.67826062 74.20561582 16.65039062 74.22460938 C15.36712891 74.22654297 14.08386719 74.22847656 12.76171875 74.23046875 C11.58569092 74.23457764 10.40966309 74.23868652 9.19799805 74.24291992 C6.01477408 74.00112224 3.82354749 73.46540987 1 72 C-0.44957456 69.10085089 -0.11932924 66.585717 -0.11352539 63.34716797 C-0.11367142 62.66412598 -0.11381744 61.98108398 -0.1139679 61.27734375 C-0.11327023 59.0155929 -0.10548465 56.753924 -0.09765625 54.4921875 C-0.09579155 52.92562912 -0.09436789 51.35907016 -0.09336853 49.79251099 C-0.08954743 45.66610102 -0.0797206 41.53972616 -0.06866455 37.41333008 C-0.0584417 33.20394363 -0.05386903 28.99455153 -0.04882812 24.78515625 C-0.03809798 16.52341958 -0.02050446 8.2617182 0 0 Z " fill="#113C62" transform="translate(368,271)"/>
<path d="M0 0 C12.21 0 24.42 0 37 0 C42.57267962 5.57267962 42.57267962 5.57267962 42.64343262 11.07946777 C42.62703735 11.84730591 42.61064209 12.61514404 42.59375 13.40625 C42.59379028 14.20857056 42.59383057 15.01089111 42.59387207 15.83752441 C42.58852641 17.52864443 42.57098422 19.2197646 42.54199219 20.91064453 C42.50012994 23.49198724 42.50092685 26.07071867 42.5078125 28.65234375 C42.49731904 30.29949721 42.48438008 31.94663728 42.46875 33.59375 C42.46854858 34.36158813 42.46834717 35.12942627 42.46813965 35.92053223 C42.36901692 40.43224744 41.80652434 43.41712988 39 47 C36.44276771 48.27861615 34.63262898 48.11336609 31.7734375 48.09765625 C30.3800415 48.09390991 30.3800415 48.09390991 28.95849609 48.09008789 C27.77594238 48.08098389 26.59338867 48.07187988 25.375 48.0625 C19.744375 48.0315625 19.744375 48.0315625 14 48 C14 56.58 14 65.16 14 74 C9.38 74 4.76 74 0 74 C0 49.58 0 25.16 0 0 Z M14 12 C14 19.59 14 27.18 14 35 C18.62 35 23.24 35 28 35 C28.02682987 31.35411831 28.04675569 27.70843154 28.0625 24.0625 C28.07087891 23.02158203 28.07925781 21.98066406 28.08789062 20.90820312 C28.09111328 19.91884766 28.09433594 18.92949219 28.09765625 17.91015625 C28.10289307 16.99371338 28.10812988 16.07727051 28.11352539 15.13305664 C28.23921211 13.01636977 28.23921211 13.01636977 27 12 C24.81360547 11.92741054 22.62499611 11.91626217 20.4375 11.9375 C17.2509375 11.9684375 17.2509375 11.9684375 14 12 Z " fill="#154066" transform="translate(82,271)"/>
<path d="M0 0 C0 0.33 0 0.66 0 1 C-1.27875 1.12375 -2.5575 1.2475 -3.875 1.375 C-7.34790936 1.69042399 -7.34790936 1.69042399 -10 4 C-10.29349883 6.0988527 -10.29349883 6.0988527 -10.23046875 8.5 C-10.22853516 9.386875 -10.22660156 10.27375 -10.22460938 11.1875 C-10.21236328 12.115625 -10.20011719 13.04375 -10.1875 14 C-10.18685547 14.928125 -10.18621094 15.85625 -10.18554688 16.8125 C-10.329909 21.56382549 -10.329909 21.56382549 -9 26 C-1.74 26 5.52 26 13 26 C13.66 24.68 14.32 23.36 15 22 C18 23 18 23 19 25 C19.07092842 27.2072923 19.08415025 29.41667452 19.0625 31.625 C19.05347656 32.81351563 19.04445313 34.00203125 19.03515625 35.2265625 C19.02355469 36.14179688 19.01195312 37.05703125 19 38 C18.34 38 17.68 38 17 38 C16.92265625 38.88429687 16.8453125 39.76859375 16.765625 40.6796875 C15.86050542 44.60495096 14.49930615 46.22093159 11.75 49.125 C10.98171875 49.95257813 10.2134375 50.78015625 9.421875 51.6328125 C2.79387906 58.11114402 -2.01410328 60.37758776 -11.3125 60.3125 C-12.06781006 60.31121094 -12.82312012 60.30992187 -13.60131836 60.30859375 C-18.98077907 60.21553356 -23.15696429 59.47303951 -28 57 C-28 56.34 -28 55.68 -28 55 C-28.99 55 -29.98 55 -31 55 C-33.4375 52.8125 -33.4375 52.8125 -36 50 C-36.680625 49.278125 -37.36125 48.55625 -38.0625 47.8125 C-43.53977706 39.86161394 -45.50077506 31.59141957 -44 22 C-41.66038362 15.39310989 -38.52547223 9.44733131 -33 5 C-32.47664063 4.56171875 -31.95328125 4.1234375 -31.4140625 3.671875 C-22.8909856 -3.03860184 -9.95164437 -4.42295306 0 0 Z M-31 13 C-31.24339551 15.89883083 -31.24339551 15.89883083 -31.125 19.125 C-31.10695313 20.22070312 -31.08890625 21.31640625 -31.0703125 22.4453125 C-31.04710937 23.28835937 -31.02390625 24.13140625 -31 25 C-28.25494537 26.37252731 -25.99672588 26.13229255 -22.9375 26.125 C-21.85339844 26.12757813 -20.76929688 26.13015625 -19.65234375 26.1328125 C-17.07756602 26.30118564 -17.07756602 26.30118564 -16 25 C-15.87485072 23.02380553 -15.8242724 21.04261827 -15.8125 19.0625 C-15.79832031 17.98097656 -15.78414063 16.89945313 -15.76953125 15.78515625 C-15.70951969 12.85955685 -15.70951969 12.85955685 -18 11 C-20.59916083 10.68050269 -20.59916083 10.68050269 -23.5 10.75 C-24.4796875 10.74484375 -25.459375 10.7396875 -26.46875 10.734375 C-29.16888152 10.74924955 -29.16888152 10.74924955 -31 13 Z M-8 32 C-10.14553377 35.21830065 -10.29583868 36.26786507 -10.3125 40 C-10.32925781 40.86625 -10.34601563 41.7325 -10.36328125 42.625 C-10.16871152 45.02321946 -10.16871152 45.02321946 -8.796875 46.79296875 C-6.40534502 48.39945302 -4.79864402 48.3672789 -1.9375 48.3125 C-1.05964844 48.30863281 -0.18179688 48.30476563 0.72265625 48.30078125 C3.19662769 48.20899334 3.19662769 48.20899334 5 46 C5.31991706 43.17129751 5.31991706 43.17129751 5.25 40 C5.25515625 38.9275 5.2603125 37.855 5.265625 36.75 C5.28027649 33.85637822 5.28027649 33.85637822 3 32 C0.40225081 31.64251135 0.40225081 31.64251135 -2.5 31.6875 C-3.4796875 31.67074219 -4.459375 31.65398437 -5.46875 31.63671875 C-6.3040625 31.75660156 -7.139375 31.87648437 -8 32 Z " fill="#053762" transform="translate(292,122)"/>
<path d="M0 0 C1.08809212 0.01061211 1.08809212 0.01061211 2.19816589 0.0214386 C4.50167578 0.04929719 6.80270126 0.11200934 9.10546875 0.17578125 C10.67249078 0.20087562 12.23955115 0.22368681 13.80664062 0.24414062 C17.63636531 0.29909444 21.46424672 0.38529899 25.29296875 0.48828125 C25.29296875 4.44828125 25.29296875 8.40828125 25.29296875 12.48828125 C17.37296875 12.81828125 9.45296875 13.14828125 1.29296875 13.48828125 C1.29296875 19.09828125 1.29296875 24.70828125 1.29296875 30.48828125 C2.66710937 30.43027344 4.04125 30.37226563 5.45703125 30.3125 C7.27730967 30.26558561 9.09762497 30.22008725 10.91796875 30.17578125 C12.27341797 30.11293945 12.27341797 30.11293945 13.65625 30.04882812 C14.53925781 30.03271484 15.42226563 30.01660156 16.33203125 30 C17.13850098 29.97381592 17.9449707 29.94763184 18.77587891 29.9206543 C22.46208953 30.75192876 25.02233469 32.52964307 27.29296875 35.48828125 C27.88517568 38.37145523 28.09443414 40.40511532 28.01953125 43.2734375 C28.02052826 44.0115416 28.02152527 44.74964569 28.02255249 45.51011658 C28.0178883 47.06422748 27.99853141 48.61835588 27.96533203 50.17211914 C27.91802887 52.54776186 27.92422765 54.9189261 27.9375 57.29492188 C27.926348 58.80862043 27.91212916 60.32230016 27.89453125 61.8359375 C27.89726547 62.89700462 27.89726547 62.89700462 27.90005493 63.97950745 C27.80197306 67.39706233 27.5292293 69.18986433 25.38037109 71.90405273 C21.51501131 74.83765737 18.34901012 74.61893583 13.66015625 74.5859375 C12.5324028 74.58381508 12.5324028 74.58381508 11.38186646 74.58164978 C8.97719365 74.5760459 6.57261348 74.56349282 4.16796875 74.55078125 C2.53906384 74.54576675 0.91015748 74.54120375 -0.71875 74.53710938 C-4.71487952 74.52607522 -8.71093967 74.50880804 -12.70703125 74.48828125 C-12.70703125 70.19828125 -12.70703125 65.90828125 -12.70703125 61.48828125 C-0.33203125 60.99328125 -0.33203125 60.99328125 12.29296875 60.48828125 C12.62296875 54.87828125 12.95296875 49.26828125 13.29296875 43.48828125 C11.83503906 43.54628906 10.37710937 43.60429687 8.875 43.6640625 C6.95185497 43.71096848 5.02867526 43.75646774 3.10546875 43.80078125 C2.14576172 43.84267578 1.18605469 43.88457031 0.19726562 43.92773438 C-0.73408203 43.94384766 -1.66542969 43.95996094 -2.625 43.9765625 C-3.47860107 44.00274658 -4.33220215 44.02893066 -5.21166992 44.0559082 C-8.97455023 43.19995509 -10.40348049 41.53380346 -12.70703125 38.48828125 C-13.20820161 35.76342745 -13.41148336 33.67201684 -13.37109375 30.95703125 C-13.37587738 30.24349487 -13.38066101 29.5299585 -13.3855896 28.7947998 C-13.38897935 27.29205103 -13.37984133 25.78922759 -13.35888672 24.28662109 C-13.33209908 21.9940865 -13.35865656 19.70644591 -13.390625 17.4140625 C-13.38732073 15.94920801 -13.38091411 14.48435655 -13.37109375 13.01953125 C-13.3812149 12.33918823 -13.39133606 11.65884521 -13.40176392 10.95788574 C-13.31357179 7.3533356 -12.72894688 5.51956369 -10.6472168 2.5480957 C-7.01865702 0.00602489 -4.27005503 -0.15831952 0 0 Z " fill="#09365F" transform="translate(450.70703125,270.51171875)"/>
<path d="M0 0 C11.6099992 4.21152194 27.02917675 12.77306662 32.578125 24.4609375 C32.78953125 25.16605469 33.0009375 25.87117188 33.21875 26.59765625 C33.87875 26.59765625 34.53875 26.59765625 35.21875 26.59765625 C36.73587598 29.3176336 38.22926422 32.04995939 39.71875 34.78515625 C40.36263672 35.93854492 40.36263672 35.93854492 41.01953125 37.11523438 C45.04827949 44.56522121 45.04827949 44.56522121 44.21875 48.59765625 C41.96875 50.22265625 41.96875 50.22265625 39.21875 51.59765625 C36.41863451 53.51773544 35.14589446 54.70693955 33.21875 57.59765625 C32.99960937 56.64246094 32.78046875 55.68726563 32.5546875 54.703125 C30.73955564 47.17491935 28.61491552 40.66589009 24.5859375 33.96484375 C23.20357438 31.57138075 22.18500853 29.18354812 21.21875 26.59765625 C20.55875 26.59765625 19.89875 26.59765625 19.21875 26.59765625 C18.77789062 25.85515625 18.33703125 25.11265625 17.8828125 24.34765625 C13.43556842 16.99822002 4.75797678 12.32969874 -2.78125 8.59765625 C-3.68101562 8.13101563 -4.58078125 7.664375 -5.5078125 7.18359375 C-11.29691722 4.32891126 -15.34581723 3.12095753 -21.78125 3.59765625 C-22.27625 3.10265625 -22.27625 3.10265625 -22.78125 2.59765625 C-25.37698524 2.58070062 -27.94261918 2.62657815 -30.53515625 2.71875 C-31.69832619 2.75416649 -31.69832619 2.75416649 -32.88499451 2.79029846 C-35.37142435 2.86711515 -37.85755669 2.95106125 -40.34375 3.03515625 C-42.02537587 3.08835895 -43.70701644 3.14109945 -45.38867188 3.19335938 C-49.51972106 3.32275446 -53.65051702 3.45854565 -57.78125 3.59765625 C-54.83743512 1.92636693 -52.60741606 1.32033866 -49.234375 1.18359375 C-48.39003906 1.14492187 -47.54570312 1.10625 -46.67578125 1.06640625 C-45.80308594 1.03546875 -44.93039062 1.00453125 -44.03125 0.97265625 C-42.69900391 0.91464844 -42.69900391 0.91464844 -41.33984375 0.85546875 C-39.1538502 0.76144752 -36.96785938 0.67579482 -34.78125 0.59765625 C-34.78125 -0.39234375 -34.78125 -1.38234375 -34.78125 -2.40234375 C-25.34405341 -7.12094205 -9.51148686 -3.12854397 0 0 Z " fill="#153F66" transform="translate(312.78125,77.40234375)"/>
<path d="M0 0 C1.23173915 0.74576763 2.46025204 1.49686447 3.6875 2.25 C4.37199219 2.66765625 5.05648438 3.0853125 5.76171875 3.515625 C17.9893919 11.62472761 28.10027602 26.45053118 31.6875 40.73828125 C33.16615905 48.4909728 33.20954445 56.13044184 33 64 C30 63 30 63 29.12792969 61.31689453 C28.89493164 60.59614746 28.66193359 59.87540039 28.421875 59.1328125 C28.01642456 57.93507202 28.01642456 57.93507202 27.6027832 56.71313477 C27.32136475 55.85905029 27.03994629 55.00496582 26.75 54.125 C23.73352273 45.4561707 20.48354749 37.3883217 13.79296875 30.83984375 C12 29 12 29 12 27 C11.42507813 26.74863281 10.85015625 26.49726562 10.2578125 26.23828125 C7.71354423 24.84289537 5.96117598 23.20054435 3.875 21.1875 C-0.65965112 17.04519806 -5.39278449 14.43486602 -11 12 C-11 11.67 -11 11.34 -11 11 C-8.69 11 -6.38 11 -4 11 C-3.67 10.34 -3.34 9.68 -3 9 C-1.5625 6.875 -1.5625 6.875 0 5 C0.66 5 1.32 5 2 5 C2 4.34 2 3.68 2 3 C0.68 2.67 -0.64 2.34 -2 2 C-1.34 2 -0.68 2 0 2 C0 1.34 0 0.68 0 0 Z " fill="#1E476B" transform="translate(313,89)"/>
<path d="M0 0 C0.92748047 -0.00257812 1.85496094 -0.00515625 2.81054688 -0.0078125 C4.26750977 0.00378906 4.26750977 0.00378906 5.75390625 0.015625 C7.20506836 0.00402344 7.20506836 0.00402344 8.68554688 -0.0078125 C10.07870117 -0.00394531 10.07870117 -0.00394531 11.5 0 C12.35134521 0.00225586 13.20269043 0.00451172 14.07983398 0.00683594 C16.31640625 0.265625 16.31640625 0.265625 19.31640625 2.265625 C19.6887207 4.28100586 19.6887207 4.28100586 19.6796875 6.73046875 C19.67904297 7.61283203 19.67839844 8.49519531 19.67773438 9.40429688 C19.66162109 10.32791016 19.64550781 11.25152344 19.62890625 12.203125 C19.63374023 13.58274414 19.63374023 13.58274414 19.63867188 14.99023438 C19.58351358 21.86496401 19.58351358 21.86496401 17.31640625 25.265625 C15.1015625 25.65380859 15.1015625 25.65380859 12.37890625 25.6640625 C10.91324219 25.66986328 10.91324219 25.66986328 9.41796875 25.67578125 C7.88269531 25.65837891 7.88269531 25.65837891 6.31640625 25.640625 C5.29289062 25.65222656 4.269375 25.66382813 3.21484375 25.67578125 C2.23773438 25.67191406 1.260625 25.66804688 0.25390625 25.6640625 C-0.64457031 25.66067871 -1.54304688 25.65729492 -2.46875 25.65380859 C-3.19964844 25.52570801 -3.93054688 25.39760742 -4.68359375 25.265625 C-6.79336135 22.1009736 -6.9391198 21.29168727 -6.94921875 17.66796875 C-6.95179688 16.78431641 -6.954375 15.90066406 -6.95703125 14.99023438 C-6.94929688 14.07048828 -6.9415625 13.15074219 -6.93359375 12.203125 C-6.94132812 11.27951172 -6.9490625 10.35589844 -6.95703125 9.40429688 C-6.95445312 8.52193359 -6.951875 7.63957031 -6.94921875 6.73046875 C-6.94696289 5.922146 -6.94470703 5.11382324 -6.94238281 4.28100586 C-6.38654478 -0.04771394 -3.70363522 0.00982676 0 0 Z " fill="#449EEE" transform="translate(287.68359375,123.734375)"/>
<path d="M0 0 C2.67391447 1.33695724 2.68443305 2.43766436 3.62890625 5.234375 C3.93707275 6.11279053 4.24523926 6.99120605 4.56274414 7.89624023 C4.89266357 8.83798096 5.22258301 9.77972168 5.5625 10.75 C10.07598756 23.08464072 15.51941186 32.74932423 26 41 C26 41.66 26 42.32 26 43 C26.598125 43.268125 27.19625 43.53625 27.8125 43.8125 C29.97224808 44.98493467 31.35790256 46.19369282 33 48 C32.01 48.33 31.02 48.66 30 49 C29.67 48.34 29.34 47.68 29 47 C28.66226563 47.62648437 28.32453125 48.25296875 27.9765625 48.8984375 C27.53054687 49.71570313 27.08453125 50.53296875 26.625 51.375 C26.18414062 52.18710938 25.74328125 52.99921875 25.2890625 53.8359375 C24 56 24 56 22 58 C20.5 56.625 20.5 56.625 19 55 C19 54.34 19 53.68 19 53 C18.41992188 52.76796875 17.83984375 52.5359375 17.2421875 52.296875 C8.63256487 47.31709327 4.05185592 34.93470977 1 26 C-1.13956203 17.83263341 -1.56085376 9.41280638 -1 1 C-0.67 0.67 -0.34 0.34 0 0 Z " fill="#1B456A" transform="translate(214,149)"/>
<path d="M0 0 C3.01813516 3.71305567 3.34218162 6.62049092 3.1875 11.3125 C3.16042969 12.38113281 3.13335937 13.44976562 3.10546875 14.55078125 C3.07066406 15.35902344 3.03585937 16.16726562 3 17 C6.02769315 17.86111516 8.84266637 18.18230893 11.984375 18.31640625 C12.91894531 18.35830078 13.85351562 18.40019531 14.81640625 18.44335938 C15.78449219 18.48267578 16.75257813 18.52199219 17.75 18.5625 C18.73355469 18.60568359 19.71710938 18.64886719 20.73046875 18.69335938 C23.15351275 18.79922052 25.5766554 18.90130171 28 19 C28 19.33 28 19.66 28 20 C25.03 20.495 25.03 20.495 22 21 C22.99 21.66 23.98 22.32 25 23 C24.34 23 23.68 23 23 23 C22.67 28.28 22.34 33.56 22 39 C21.01 39.33 20.02 39.66 19 40 C19.33 40.99 19.66 41.98 20 43 C16.37 42.67 12.74 42.34 9 42 C8.67 42.66 8.34 43.32 8 44 C6.515 43.505 6.515 43.505 5 43 C5 40.69 5 38.38 5 36 C3.515 35.505 3.515 35.505 2 35 C2.185625 34.484375 2.37125 33.96875 2.5625 33.4375 C3.15419517 30.14091261 2.567267 27.27754265 2 24 C1.67 24.33 1.34 24.66 1 25 C1.03222848 27.03039402 1.06811619 29.06128092 1.16015625 31.08984375 C1 33 1 33 -1 35 C-8.30434783 35.46376812 -8.30434783 35.46376812 -12 33 C-12.328125 30.43359375 -12.328125 30.43359375 -12.25 27.4375 C-12.23453125 26.44621094 -12.2190625 25.45492187 -12.203125 24.43359375 C-12 22 -12 22 -11 21 C-9.48071962 20.92820036 -7.95832518 20.91607993 -6.4375 20.9375 C-5.61121094 20.94652344 -4.78492188 20.95554688 -3.93359375 20.96484375 C-2.97646484 20.98224609 -2.97646484 20.98224609 -2 21 C-2 20.34 -2 19.68 -2 19 C-5.63 19 -9.26 19 -13 19 C-13 18.67 -13 18.34 -13 18 C-9.04 17.67 -5.08 17.34 -1 17 C-0.9690625 14.0609375 -0.9690625 14.0609375 -0.9375 11.0625 C-0.92589844 9.96035156 -0.91429687 8.85820312 -0.90234375 7.72265625 C-0.68737429 5.08552366 -0.68737429 5.08552366 -2 4 C-3.84891946 3.76636119 -5.70488031 3.58696365 -7.5625 3.4375 C-8.57441406 3.35371094 -9.58632813 3.26992187 -10.62890625 3.18359375 C-11.80259766 3.09271484 -11.80259766 3.09271484 -13 3 C-13 2.34 -13 1.68 -13 1 C-8.52796459 -0.11800885 -4.57850782 -0.4430814 0 0 Z M8 24 C5.85446623 27.21830065 5.70416132 28.26786507 5.6875 32 C5.67074219 32.86625 5.65398437 33.7325 5.63671875 34.625 C5.83128848 37.02321946 5.83128848 37.02321946 7.203125 38.79296875 C9.59465498 40.39945302 11.20135598 40.3672789 14.0625 40.3125 C14.94035156 40.30863281 15.81820313 40.30476563 16.72265625 40.30078125 C19.19662769 40.20899334 19.19662769 40.20899334 21 38 C21.31991706 35.17129751 21.31991706 35.17129751 21.25 32 C21.25515625 30.9275 21.2603125 29.855 21.265625 28.75 C21.28027649 25.85637822 21.28027649 25.85637822 19 24 C16.40225081 23.64251135 16.40225081 23.64251135 13.5 23.6875 C12.5203125 23.67074219 11.540625 23.65398437 10.53125 23.63671875 C9.6959375 23.75660156 8.860625 23.87648437 8 24 Z " fill="#16436A" transform="translate(276,130)"/>
<path d="M0 0 C6.05377507 -0.15134438 9.58309916 0.29154958 15 3 C15.66 2.01 16.32 1.02 17 0 C17.268125 0.59683594 17.53625 1.19367188 17.8125 1.80859375 C19.87008714 6.36371265 21.94683152 10.9056856 24.11328125 15.41015625 C24.47615234 16.16820557 24.83902344 16.92625488 25.21289062 17.70727539 C25.93988505 19.22308458 26.67158284 20.73664789 27.40820312 22.24780273 C30 27.66582725 30 27.66582725 30 31 C25.05 31 20.1 31 15 31 C9.81378856 20.74881324 4.79914484 10.43814002 0 0 Z " fill="#184268" transform="translate(167,314)"/>
<path d="M0 0 C0.99 0.66 1.98 1.32 3 2 C3 2.66 3 3.32 3 4 C3.556875 4.226875 4.11375 4.45375 4.6875 4.6875 C7.64187072 6.36430501 9.63102343 8.57324352 12 11 C24.39132581 21.53783337 40.27647274 24.77469633 56 27 C56 27.66 56 28.32 56 29 C40.28196057 32.67243912 21.92860794 29.3451542 8.19677734 20.88964844 C3.57558374 17.77269919 -0.87967321 14.68049018 -4 10 C-2.68 10.33 -1.36 10.66 0 11 C0 10.21625 0 9.4325 0 8.625 C0 5.75 0 2.875 0 0 Z " fill="#3A5A76" transform="translate(225,198)"/>
<path d="M0 0 C16.4137664 5.93300155 16.4137664 5.93300155 19.265625 11.63671875 C18.605625 11.63671875 17.945625 11.63671875 17.265625 11.63671875 C17.265625 12.62671875 17.265625 13.61671875 17.265625 14.63671875 C15.780625 15.13171875 15.780625 15.13171875 14.265625 15.63671875 C13.10751112 16.68942338 13.10751112 16.68942338 12.265625 18.63671875 C11.75515625 18.20101562 11.2446875 17.7653125 10.71875 17.31640625 C3.25091456 11.19913679 -7.86483666 3.09141635 -17.984375 3.57421875 C-19.221875 3.59484375 -20.459375 3.61546875 -21.734375 3.63671875 C-22.229375 3.14171875 -22.229375 3.14171875 -22.734375 2.63671875 C-25.33011024 2.61976312 -27.89574418 2.66564065 -30.48828125 2.7578125 C-31.65145119 2.79322899 -31.65145119 2.79322899 -32.83811951 2.82936096 C-35.32454935 2.90617765 -37.81068169 2.99012375 -40.296875 3.07421875 C-41.97850087 3.12742145 -43.66014144 3.18016195 -45.34179688 3.23242188 C-49.47284606 3.36181696 -53.60364202 3.49760815 -57.734375 3.63671875 C-54.79056012 1.96542943 -52.56054106 1.35940116 -49.1875 1.22265625 C-48.34316406 1.18398437 -47.49882812 1.1453125 -46.62890625 1.10546875 C-45.75621094 1.07453125 -44.88351562 1.04359375 -43.984375 1.01171875 C-42.65212891 0.95371094 -42.65212891 0.95371094 -41.29296875 0.89453125 C-39.1069752 0.80051002 -36.92098438 0.71485732 -34.734375 0.63671875 C-34.734375 -0.35328125 -34.734375 -1.34328125 -34.734375 -2.36328125 C-25.30837632 -7.07628059 -9.51515085 -3.08487862 0 0 Z " fill="#164068" transform="translate(312.734375,77.36328125)"/>
<path d="M0 0 C7.57138009 6.5317279 10.28704366 18.43450247 11 28 C11.13229445 32.67282908 11.12442208 37.32725962 11 42 C8 41 8 41 7.11206055 39.30102539 C6.87269775 38.57391357 6.63333496 37.84680176 6.38671875 37.09765625 C6.11085938 36.29392578 5.835 35.49019531 5.55078125 34.66210938 C5.12345703 33.37530273 5.12345703 33.37530273 4.6875 32.0625 C2.40323111 25.460766 0.00449368 19.57784812 -4.03125 13.8125 C-4.3509375 13.214375 -4.670625 12.61625 -5 12 C-4.67 11.01 -4.34 10.02 -4 9 C-3.01 8.67 -2.02 8.34 -1 8 C-0.34 7.34 0.32 6.68 1 6 C0.67801034 2.90073181 0.67801034 2.90073181 0 0 Z " fill="#305575" transform="translate(335,111)"/>
<path d="M0 0 C11.22 0 22.44 0 34 0 C34 0.33 34 0.66 34 1 C23.44 1 12.88 1 2 1 C2.1488 13.03717363 2.1488 13.03717363 2.30664062 25.07421875 C2.37299935 29.98157721 2.4382855 34.88893391 2.49731445 39.79638672 C2.54495553 43.75161172 2.59729824 47.7067488 2.65294075 51.66186905 C2.67336547 53.17296289 2.69207836 54.68408084 2.70907402 56.19521713 C2.73311551 58.30715424 2.76317022 60.41892468 2.79467773 62.53076172 C2.81022202 63.73433319 2.8257663 64.93790466 2.84178162 66.177948 C2.81018777 68.95074633 2.81018777 68.95074633 4 71 C6.64 71.33 9.28 71.66 12 72 C12 62.43 12 52.86 12 43 C12.33 43 12.66 43 13 43 C13 53.23 13 63.46 13 74 C8.71 74 4.42 74 0 74 C0 49.58 0 25.16 0 0 Z " fill="#1A3956" transform="translate(153,271)"/>
<path d="M0 0 C0.99 0.66 1.98 1.32 3 2 C3 2.66 3 3.32 3 4 C3.556875 4.226875 4.11375 4.45375 4.6875 4.6875 C7.65253447 6.3703574 9.65353689 8.53621374 12 11 C12.763125 11.70125 13.52625 12.4025 14.3125 13.125 C16.47201956 15.52446618 16 16.90654114 16 20 C15.01 20 14.02 20 13 20 C13 20.66 13 21.32 13 22 C15.64 22.33 18.28 22.66 21 23 C21.33 23.99 21.66 24.98 22 26 C15.17856558 24.77402792 10.04684918 21.99401844 4.5 18 C3.88882324 17.56059082 3.27764648 17.12118164 2.64794922 16.66845703 C-0.13378704 14.60262598 -2.0610717 12.90839245 -4 10 C-2.68 10.33 -1.36 10.66 0 11 C0 10.21625 0 9.4325 0 8.625 C0 5.75 0 2.875 0 0 Z " fill="#385D7D" transform="translate(225,198)"/>
<path d="M0 0 C2.97246802 2.54782974 4.41535288 5.45340883 6 9 C6 9.66 6 10.32 6 11 C6.66 11 7.32 11 8 11 C8 12.65 8 14.3 8 16 C8.66 16 9.32 16 10 16 C9.34 18.64 8.68 21.28 8 24 C1.39978832 22.84496296 -2.23059242 18.18718024 -6 13 C-7.234375 10.20703125 -7.234375 10.20703125 -8 8 C-7.01 8.33 -6.02 8.66 -5 9 C-4.34 7.68 -3.68 6.36 -3 5 C-2.67 6.32 -2.34 7.64 -2 9 C-0.50178941 5.62902617 0 3.79557881 0 0 Z " fill="#1E476B" transform="translate(217,185)"/>
<path d="M0 0 C2.75 0 2.75 0 6 1 C8.74738214 4.66317618 10.73043619 9.41741521 11 14 C8.82586238 16.17413762 7.93446884 16.46646021 5 17 C2 17 2 17 0.375 15.9375 C-2.1274634 12.41130157 -2 8.20846434 -2 4 C-1.34 4 -0.68 4 0 4 C0 2.68 0 1.36 0 0 Z " fill="#1A4569" transform="translate(326,104)"/>
<path d="M0 0 C0.99 0.66 1.98 1.32 3 2 C3.99 1.67 4.98 1.34 6 1 C6.58811221 3.20165083 7.14450733 5.41178936 7.6875 7.625 C8.00074219 8.85476562 8.31398437 10.08453125 8.63671875 11.3515625 C9.05826126 15.58511847 8.21739895 17.44121156 6 21 C5.67 19.68 5.34 18.36 5 17 C4.34 17.99 3.68 18.98 3 20 C0 18 0 18 -0.765625 15.7578125 C-0.92546875 14.88898438 -1.0853125 14.02015625 -1.25 13.125 C-1.42015625 12.26132813 -1.5903125 11.39765625 -1.765625 10.5078125 C-2.00058494 7.99374118 -1.76178373 6.38249139 -1 4 C-0.814375 3.2575 -0.62875 2.515 -0.4375 1.75 C-0.293125 1.1725 -0.14875 0.595 0 0 Z " fill="#07355E" transform="translate(209,175)"/>
<path d="M0 0 C0.70125 0.00515625 1.4025 0.0103125 2.125 0.015625 C2.82625 0.01046875 3.5275 0.0053125 4.25 0 C6.125 0.265625 6.125 0.265625 8.125 2.265625 C8.390625 4.140625 8.390625 4.140625 8.375 6.265625 C8.38015625 6.966875 8.3853125 7.668125 8.390625 8.390625 C8.125 10.265625 8.125 10.265625 6.125 12.265625 C4.25 12.53125 4.25 12.53125 2.125 12.515625 C1.42375 12.52078125 0.7225 12.5259375 0 12.53125 C-1.875 12.265625 -1.875 12.265625 -3.875 10.265625 C-4.140625 8.390625 -4.140625 8.390625 -4.125 6.265625 C-4.13015625 5.564375 -4.1353125 4.863125 -4.140625 4.140625 C-3.75603481 1.4258707 -2.7147543 0.38459019 0 0 Z " fill="#4A9AE3" transform="translate(268.875,152.734375)"/>
<path d="M0 0 C4.13813705 0.53176995 6.27082318 2.77932166 9.25 5.5625 C10.14203125 6.38878906 11.0340625 7.21507813 11.953125 8.06640625 C12.62859375 8.70449219 13.3040625 9.34257813 14 10 C12.60804085 12.7839183 10.84424221 12.97898997 8 14 C7.67 12.02 7.34 10.04 7 8 C4.03 7.505 4.03 7.505 1 7 C1 8.65 1 10.3 1 12 C-2.35111834 9.76592111 -3.81553956 8.73784176 -4.8125 4.75 C-4.874375 3.8425 -4.93625 2.935 -5 2 C-2.525 2.495 -2.525 2.495 0 3 C0 2.01 0 1.02 0 0 Z " fill="#143C5F" transform="translate(330,89)"/>
<path d="M0 0 C3.16532451 1.58266225 3.58369064 4.76444118 4.6875 7.9375 C4.92533203 8.58396484 5.16316406 9.23042969 5.40820312 9.89648438 C6.00302158 11.5762796 6.50797995 13.28727198 7 15 C6.67 15.66 6.34 16.32 6 17 C3.525 16.01 3.525 16.01 1 15 C1.19335938 15.58007812 1.38671875 16.16015625 1.5859375 16.7578125 C2.12461065 18.37383195 2.65960809 19.99108011 3.19140625 21.609375 C3.84753024 23.54921984 4.5702815 25.46643813 5.3125 27.375 C5.539375 28.24125 5.76625 29.1075 6 30 C5.34 30.99 4.68 31.98 4 33 C-0.96182704 23.07634592 -1.73062816 11.95942238 -1 1 C-0.67 0.67 -0.34 0.34 0 0 Z " fill="#385B78" transform="translate(214,149)"/>
<path d="M0 0 C3.20784721 -0.14622024 6.41482961 -0.23436651 9.625 -0.3125 C10.98044922 -0.3753418 10.98044922 -0.3753418 12.36328125 -0.43945312 C13.24628906 -0.45556641 14.12929688 -0.47167969 15.0390625 -0.48828125 C15.84553223 -0.51446533 16.65200195 -0.54064941 17.48291016 -0.56762695 C21.16971367 0.26378121 23.73319844 2.03672763 26 5 C26.57962878 7.89600792 26.77898149 9.94201052 26.69140625 12.8203125 C26.69003159 13.56078827 26.68865692 14.30126404 26.6872406 15.06417847 C26.67821092 16.62252307 26.65466327 18.18084359 26.61743164 19.73876953 C26.56250008 22.12499636 26.55590381 24.50773679 26.55664062 26.89453125 C26.54189802 28.41148854 26.52441427 29.9284222 26.50390625 31.4453125 C26.49889854 32.51412155 26.49889854 32.51412155 26.49378967 33.60452271 C26.35138291 38.54750978 26.35138291 38.54750978 24.46850586 40.97216797 C23.98389893 41.31135254 23.49929199 41.65053711 23 42 C23 40.68 23 39.36 23 38 C23.66 38 24.32 38 25 38 C24.93112505 33.78188503 24.84316262 29.56472995 24.73754883 25.34741211 C24.70430999 23.91295372 24.67627465 22.47836487 24.65356445 21.04370117 C24.61999729 18.98039193 24.56768587 16.91827697 24.51171875 14.85546875 C24.48553467 13.61434326 24.45935059 12.37321777 24.43237305 11.09448242 C23.96264346 7.73264025 23.46842111 7.11702106 21 5 C21 4.01 21 3.02 21 2 C10.605 2.495 10.605 2.495 0 3 C0 2.01 0 1.02 0 0 Z " fill="#7893A9" transform="translate(452,301)"/>
<path d="M0 0 C0.33 0 0.66 0 1 0 C1.0501123 0.81678223 1.10022461 1.63356445 1.15185547 2.47509766 C1.38460974 6.19230479 1.6296811 9.90860181 1.875 13.625 C1.95363281 14.91019531 2.03226562 16.19539063 2.11328125 17.51953125 C2.19707031 18.76347656 2.28085937 20.00742187 2.3671875 21.2890625 C2.44050293 22.43068848 2.51381836 23.57231445 2.58935547 24.74853516 C3.01272043 28.10071978 3.68030689 30.88965568 5 34 C7.96348429 35.9756562 8.68020373 36.26376859 12.01171875 36.4140625 C13.14770508 36.47207031 13.14770508 36.47207031 14.30664062 36.53125 C15.09232422 36.5621875 15.87800781 36.593125 16.6875 36.625 C17.48478516 36.66367187 18.28207031 36.70234375 19.10351562 36.7421875 C21.06863475 36.83632494 23.0342854 36.91924632 25 37 C25 37.33 25 37.66 25 38 C21.77131254 38.14584064 18.54347635 38.23424106 15.3125 38.3125 C13.94448242 38.3753418 13.94448242 38.3753418 12.54882812 38.43945312 C11.66259766 38.45556641 10.77636719 38.47167969 9.86328125 38.48828125 C9.05157471 38.51446533 8.23986816 38.54064941 7.40356445 38.56762695 C3.69964463 37.69290744 2.26696271 36.00471988 0 33 C-0.44003142 30.21162027 -0.59085432 28.05947947 -0.48828125 25.29296875 C-0.48120651 24.56757401 -0.47413177 23.84217926 -0.46684265 23.09480286 C-0.43898406 20.79129297 -0.37627191 18.49026749 -0.3125 16.1875 C-0.28740563 14.62047797 -0.26459444 13.0534176 -0.24414062 11.48632812 C-0.18918681 7.65660344 -0.10298226 3.82872203 0 0 Z " fill="#54728E" transform="translate(438,276)"/>
<path d="M0 0 C4.51018306 1.23004993 6.82915725 2.61776774 10 6 C12.13309192 7.23512079 12.13309192 7.23512079 14 8 C14 9.32 14 10.64 14 12 C11.69 12 9.38 12 7 12 C6.67 10.68 6.34 9.36 6 8 C3.36 7.67 0.72 7.34 -2 7 C-2.33 6.01 -2.66 5.02 -3 4 C-1.68 4.33 -0.36 4.66 1 5 C1 4.34 1 3.68 1 3 C0.34 2.67 -0.32 2.34 -1 2 C-0.67 1.34 -0.34 0.68 0 0 Z " fill="#1B4366" transform="translate(240,213)"/>
<path d="M0 0 C2.375 0.1875 2.375 0.1875 5 1 C6.81415946 3.99336311 7.08966732 6.7759136 7.375 10.1875 C7.54801802 14.04072434 7.54801802 14.04072434 10.0625 15.5 C10.701875 15.665 11.34125 15.83 12 16 C10.25 17.5625 10.25 17.5625 8 19 C5.75 18.6875 5.75 18.6875 4 18 C3.896875 16.989375 3.79375 15.97875 3.6875 14.9375 C3.15598198 11.89335136 2.67714254 10.01398515 1.4375 7.3125 C0 4 0 4 0 0 Z " fill="#06355E" transform="translate(215,164)"/>
<path d="M0 0 C2.31 0.66 4.62 1.32 7 2 C7 2.99 7 3.98 7 5 C6.67 4.34 6.34 3.68 6 3 C5.01 3 4.02 3 3 3 C3 4.32 3 5.64 3 7 C2.34 7 1.68 7 1 7 C1.33 9.64 1.66 12.28 2 15 C-1.47775179 13.48446596 -3.9557984 11.4226544 -6.75 8.875 C-7.54921875 8.15054688 -8.3484375 7.42609375 -9.171875 6.6796875 C-10.07679688 5.84824219 -10.07679688 5.84824219 -11 5 C-10.34 4.67 -9.68 4.34 -9 4 C-6.64018187 4.93578995 -4.30368736 5.93347808 -2 7 C-1.34 4.69 -0.68 2.38 0 0 Z " fill="#375A79" transform="translate(323,101)"/>
<path d="M0 0 C3.69876091 1.37287342 6.9514476 3.06355453 10.3125 5.125 C11.19550781 5.66382812 12.07851563 6.20265625 12.98828125 6.7578125 C13.65214844 7.16773437 14.31601562 7.57765625 15 8 C14.01 8.495 14.01 8.495 13 9 C13 9.99 13 10.98 13 12 C12.01 12.33 11.02 12.66 10 13 C8.84188612 14.05270463 8.84188612 14.05270463 8 16 C5.03 13.69 2.06 11.38 -1 9 C0.32 8.67 1.64 8.34 3 8 C3 8.66 3 9.32 3 10 C5.02045442 9.39816251 7.02111039 8.72693904 9 8 C9.33 7.34 9.66 6.68 10 6 C7.69 5.67 5.38 5.34 3 5 C3 4.01 3 3.02 3 2 C2.01 2 1.02 2 0 2 C0 1.34 0 0.68 0 0 Z " fill="#1F4B6E" transform="translate(317,80)"/>
<path d="M0 0 C1.5 1.3125 1.5 1.3125 3 3 C3 4.66666667 3 6.33333333 3 8 C2.01 8 1.02 8 0 8 C0 8.66 0 9.32 0 10 C2.64 10.33 5.28 10.66 8 11 C8.33 11.99 8.66 12.98 9 14 C1.74537403 12.27342931 -4.16045793 9.71112814 -10 5 C-10 4.67 -10 4.34 -10 4 C-8.35 4 -6.7 4 -5 4 C-4.67 3.34 -4.34 2.68 -4 2 C-3.34 1.67 -2.68 1.34 -2 1 C-2 1.66 -2 2.32 -2 3 C-1.34 2.67 -0.68 2.34 0 2 C0 1.34 0 0.68 0 0 Z " fill="#3C607D" transform="translate(238,210)"/>
<path d="M0 0 C0.33 0 0.66 0 1 0 C1 19.8 1 39.6 1 60 C-0.32 60 -1.64 60 -3 60 C-2.51781006 58.89857666 -2.51781006 58.89857666 -2.02587891 57.77490234 C-0.56146129 52.38631948 -0.64179193 47.16329054 -0.5859375 41.6015625 C-0.56657135 40.41146576 -0.5472052 39.22136902 -0.5272522 37.99520874 C-0.46761497 34.20521139 -0.42113384 30.41518341 -0.375 26.625 C-0.33680569 24.05076822 -0.29775311 21.47654903 -0.2578125 18.90234375 C-0.16192633 12.60167442 -0.07683243 6.30092893 0 0 Z " fill="#133251" transform="translate(380,273)"/>
<path d="M0 0 C0.33 0 0.66 0 1 0 C1.02683987 2.97922593 1.04676037 5.95821295 1.0625 8.9375 C1.07087891 9.78763672 1.07925781 10.63777344 1.08789062 11.51367188 C1.09272461 12.72700195 1.09272461 12.72700195 1.09765625 13.96484375 C1.10551147 15.08814087 1.10551147 15.08814087 1.11352539 16.23413086 C1 18 1 18 0 19 C-1.60988191 19.1329878 -3.22504425 19.20333763 -4.83984375 19.24609375 C-5.82017578 19.27896484 -6.80050781 19.31183594 -7.81054688 19.34570312 C-9.89116828 19.4067832 -11.97190397 19.46408969 -14.05273438 19.51757812 C-15.03435547 19.55173828 -16.01597656 19.58589844 -17.02734375 19.62109375 C-17.93218506 19.6461499 -18.83702637 19.67120605 -19.76928711 19.69702148 C-22.20180987 19.7981385 -22.20180987 19.7981385 -24 22 C-24 21.01 -24 20.02 -24 19 C-24.66 18.34 -25.32 17.68 -26 17 C-13.625 16.505 -13.625 16.505 -1 16 C-0.67 10.72 -0.34 5.44 0 0 Z " fill="#5A7891" transform="translate(464,315)"/>
<path d="M0 0 C0.66 0 1.32 0 2 0 C2 3.96 2 7.92 2 12 C-5.92 12.33 -13.84 12.66 -22 13 C-22 18.61 -22 24.22 -22 30 C-22.33 30 -22.66 30 -23 30 C-23 24.06 -23 18.12 -23 12 C-20.59454362 10.79727181 -19.05003047 10.89928528 -16.375 10.9375 C-15.14910156 10.95103516 -15.14910156 10.95103516 -13.8984375 10.96484375 C-12.95871094 10.98224609 -12.95871094 10.98224609 -12 11 C-11.67 10.34 -11.34 9.68 -11 9 C-7.7 9.33 -4.4 9.66 -1 10 C-0.67 6.7 -0.34 3.4 0 0 Z " fill="#3F5F7F" transform="translate(474,271)"/>
<path d="M0 0 C0.66 0 1.32 0 2 0 C2.33 0.66 2.66 1.32 3 2 C18.84 2.495 18.84 2.495 35 3 C31.40409475 5.39727017 29.74123429 5.25745804 25.46875 5.265625 C24.18355469 5.26820313 22.89835937 5.27078125 21.57421875 5.2734375 C20.57140869 5.26715332 20.57140869 5.26715332 19.54833984 5.26074219 C17.50718453 5.25003768 15.46690925 5.26064663 13.42578125 5.2734375 C12.14058594 5.27085937 10.85539063 5.26828125 9.53125 5.265625 C8.35111328 5.26336914 7.17097656 5.26111328 5.95507812 5.25878906 C3 5 3 5 0 3 C0 2.01 0 1.02 0 0 Z " fill="#36516E" transform="translate(227,340)"/>
<path d="M0 0 C1.45853394 -0.02078613 1.45853394 -0.02078613 2.9465332 -0.04199219 C4.22512207 -0.06302002 4.22512207 -0.06302002 5.52954102 -0.08447266 C8.75926065 0.14206495 11.1188295 1.33222534 13.8059082 3.07519531 C10.44238599 4.75695642 6.58837842 3.6404858 3.08227539 2.52856445 C-0.35412222 1.84415965 -3.75898548 2.0699219 -7.2409668 2.19628906 C-8.01216858 2.21990005 -8.78337036 2.24351105 -9.57794189 2.26783752 C-12.03352444 2.3442187 -14.4887711 2.42835224 -16.9440918 2.51269531 C-18.61204428 2.56594161 -20.28001301 2.61868183 -21.94799805 2.67089844 C-26.03024074 2.7997991 -30.11219962 2.93565156 -34.1940918 3.07519531 C-30.83902963 1.07089856 -28.16367506 0.77832733 -24.28393555 0.66113281 C-23.12829102 0.62246094 -21.97264648 0.58378906 -20.78198242 0.54394531 C-19.57735352 0.51300781 -18.37272461 0.48207031 -17.1315918 0.45019531 C-15.9540332 0.41152344 -14.77647461 0.37285156 -13.56323242 0.33300781 C-9.04265128 0.19291233 -4.52143047 0.10644352 0 0 Z " fill="#4C677B" transform="translate(289.194091796875,77.9248046875)"/>
<path d="M0 0 C2.64 0 5.28 0 8 0 C8.33 0.99 8.66 1.98 9 3 C8.01 3.33 7.02 3.66 6 4 C3.56677656 6.21202131 1.83318214 8.25022679 0 11 C-1.98 10.01 -3.96 9.02 -6 8 C-4.6875 5.5 -4.6875 5.5 -3 3 C-2.01 3 -1.02 3 0 3 C0 2.01 0 1.02 0 0 Z " fill="#05345F" transform="translate(251,203)"/>
<path d="M0 0 C0 0.66 0 1.32 0 2 C1.32 2.33 2.64 2.66 4 3 C3.01 3.99 2.02 4.98 1 6 C0.071875 5.525625 -0.85625 5.05125 -1.8125 4.5625 C-6.04299292 2.70351543 -10.16757724 2.51426424 -14.7421875 2.30859375 C-15.48726563 2.20675781 -16.23234375 2.10492188 -17 2 C-17.33 1.34 -17.66 0.68 -18 0 C-12.00223894 -1.49944026 -5.99776106 -1.49944026 0 0 Z " fill="#0C365C" transform="translate(303,76)"/>
<path d="M0 0 C5.36095277 1.58921525 10.70843973 3.18972938 16 5 C16 5.99 16 6.98 16 8 C15.01 8.33 14.02 8.66 13 9 C12.67 7.68 12.34 6.36 12 5 C11.34 5 10.68 5 10 5 C10 6.65 10 8.3 10 10 C7.36 9.67 4.72 9.34 2 9 C2.495 8.54625 2.99 8.0925 3.5 7.625 C5.22609337 6.12364481 5.22609337 6.12364481 5 4 C3.35178756 2.96986723 1.68496298 1.96885372 0 1 C0 0.67 0 0.34 0 0 Z " fill="#4A6E87" transform="translate(248,217)"/>
<path d="M0 0 C2 1 2 1 2.8125 3.1875 C3.05705303 6.85579552 1.81993515 8.86971154 0 12 C-0.33 10.68 -0.66 9.36 -1 8 C-1.99 9.485 -1.99 9.485 -3 11 C-3.99 10.34 -4.98 9.68 -6 9 C-6.375 6.5 -6.375 6.5 -6 4 C-5.01 3.34 -4.02 2.68 -3 2 C-2.67 1.67 -2.34 1.34 -2 1 C-1.34 0.67 -0.68 0.34 0 0 Z " fill="#06345D" transform="translate(215,184)"/>
<path d="M0 0 C0.99 0 1.98 0 3 0 C3.16435547 0.95712891 3.16435547 0.95712891 3.33203125 1.93359375 C3.49058594 2.75988281 3.64914063 3.58617187 3.8125 4.4375 C3.96332031 5.26121094 4.11414063 6.08492188 4.26953125 6.93359375 C4.51058594 7.61550781 4.75164062 8.29742187 5 9 C8.42232972 10.14077657 11.08673217 10.09815117 14.6875 10.0625 C15.86699219 10.05347656 17.04648438 10.04445313 18.26171875 10.03515625 C19.16535156 10.02355469 20.06898438 10.01195312 21 10 C21 10.99 21 11.98 21 13 C16.05 13 11.1 13 6 13 C0 1.125 0 1.125 0 0 Z " fill="#4D677F" transform="translate(176,332)"/>
<path d="M0 0 C3.96 0 7.92 0 12 0 C12.66 1.65 13.32 3.3 14 5 C11.70961976 6.14519012 10.46931463 6.07351912 7.9375 6 C6.638125 6 5.33875 6 4 6 C2.50256881 7.49743119 2.66797307 8.98824239 2.4375 11.0625 C2.2209375 13.0115625 2.2209375 13.0115625 2 15 C1.67 15 1.34 15 1 15 C0.97312721 13.18757948 0.95366285 11.37504767 0.9375 9.5625 C0.92589844 8.55316406 0.91429687 7.54382813 0.90234375 6.50390625 C1 4 1 4 2 3 C3.51928038 2.92820036 5.04167482 2.91607993 6.5625 2.9375 C7.38878906 2.94652344 8.21507812 2.95554688 9.06640625 2.96484375 C9.70449219 2.97644531 10.34257812 2.98804688 11 3 C11 2.34 11 1.68 11 1 C7.37 1 3.74 1 0 1 C0 0.67 0 0.34 0 0 Z " fill="#295A86" transform="translate(263,148)"/>
<path d="M0 0 C0.125 5.75 0.125 5.75 -1 8 C-0.855625 8.556875 -0.71125 9.11375 -0.5625 9.6875 C0.19758892 12.81231 0.06158477 15.79759201 0 19 C-1.86529124 16.20206314 -2.61067174 14.30531518 -3.5 11.125 C-4.49825494 7.65897779 -5.56335973 4.31532371 -7 1 C-2.25 0 -2.25 0 0 0 Z " fill="#244C6F" transform="translate(346,111)"/>
<path d="M0 0 C0.82822266 -0.00128906 1.65644531 -0.00257812 2.50976562 -0.00390625 C3.37666016 -0.00003906 4.24355469 0.00382812 5.13671875 0.0078125 C5.99201172 0.00394531 6.84730469 0.00007813 7.72851562 -0.00390625 C11.88712744 0.00253622 15.77013821 0.07958745 19.82421875 1.1328125 C19.82421875 1.4628125 19.82421875 1.7928125 19.82421875 2.1328125 C18.86 2.10960938 17.89578125 2.08640625 16.90234375 2.0625 C15.6390625 2.04445313 14.37578125 2.02640625 13.07421875 2.0078125 C11.19476563 1.97300781 11.19476563 1.97300781 9.27734375 1.9375 C5.98075795 2.12395847 4.61482506 2.59316764 1.82421875 4.1328125 C-0.31640625 4.328125 -0.31640625 4.328125 -2.42578125 4.2578125 C-4.28203125 4.1959375 -4.28203125 4.1959375 -6.17578125 4.1328125 C-6.17578125 3.1428125 -6.17578125 2.1528125 -6.17578125 1.1328125 C-3.87690808 -0.01662408 -2.55487511 0.00382344 0 0 Z " fill="#7591A8" transform="translate(284.17578125,73.8671875)"/>
<path d="M0 0 C1.86665742 3.89718171 2.13965761 6.54084185 1.625 10.8125 C1.45871094 12.27623047 1.45871094 12.27623047 1.2890625 13.76953125 C1.14597656 14.87361328 1.14597656 14.87361328 1 16 C0.67 16 0.34 16 0 16 C-0.06058594 15.21753906 -0.12117188 14.43507812 -0.18359375 13.62890625 C-0.26738281 12.61699219 -0.35117187 11.60507813 -0.4375 10.5625 C-0.51871094 9.55316406 -0.59992188 8.54382813 -0.68359375 7.50390625 C-0.73211468 5.06359221 -0.73211468 5.06359221 -2 4 C-3.84891946 3.76636119 -5.70488031 3.58696365 -7.5625 3.4375 C-8.57441406 3.35371094 -9.58632813 3.26992187 -10.62890625 3.18359375 C-11.80259766 3.09271484 -11.80259766 3.09271484 -13 3 C-13 2.34 -13 1.68 -13 1 C-8.59085217 -0.10228696 -4.51617599 -0.07654536 0 0 Z " fill="#607C95" transform="translate(276,130)"/>
<path d="M0 0 C1.65 0.33 3.3 0.66 5 1 C4.39301257 5.12751449 2.96189209 8.3321148 1 12 C0.01 11.67 -0.98 11.34 -2 11 C-2 8.69 -2 6.38 -2 4 C-1.34 4 -0.68 4 0 4 C0 2.68 0 1.36 0 0 Z " fill="#06355E" transform="translate(326,104)"/>
<path d="M0 0 C0.66 0 1.32 0 2 0 C2.9375 2.0625 2.9375 2.0625 3 5 C-0.08664973 9.26818628 -3.84969833 12.59537227 -9 14 C-9 13.34 -9 12.68 -9 12 C-8.34 12 -7.68 12 -7 12 C-7 11.34 -7 10.68 -7 10 C-6.01 10 -5.02 10 -4 10 C-4 9.01 -4 8.02 -4 7 C-4.66 6.67 -5.32 6.34 -6 6 C-5.195625 5.38125 -4.39125 4.7625 -3.5625 4.125 C-0.96125481 2.25835959 -0.96125481 2.25835959 0 0 Z " fill="#135389" transform="translate(312,178)"/>
<path d="M0 0 C4.86896303 0.59619955 9.32790951 1.56976822 14 3 C11.36095629 4.41377341 8.92879371 5.37240135 6 6 C6.33 6.99 6.66 7.98 7 9 C5.02 8.34 3.04 7.68 1 7 C1 5 1 5 3 3 C2.01 2.67 1.02 2.34 0 2 C0 1.34 0 0.68 0 0 Z " fill="#395B7B" transform="translate(303,76)"/>
<path d="M0 0 C0.33 0.99 0.66 1.98 1 3 C1.99 2.67 2.98 2.34 4 2 C4.99 2.33 5.98 2.66 7 3 C7.33 3.99 7.66 4.98 8 6 C6.7934375 5.9690625 6.7934375 5.9690625 5.5625 5.9375 C3.06645115 5.70366379 3.06645115 5.70366379 2 7 C-3.52941176 7.23529412 -3.52941176 7.23529412 -6 6 C-6 5.01 -6 4.02 -6 3 C-5.195625 2.87625 -4.39125 2.7525 -3.5625 2.625 C-2.716875 2.41875 -1.87125 2.2125 -1 2 C-0.67 1.34 -0.34 0.68 0 0 Z " fill="#174065" transform="translate(231,207)"/>
<path d="M0 0 C2.97 0.495 2.97 0.495 6 1 C6 1.66 6 2.32 6 3 C4.02 3.99 4.02 3.99 2 5 C2.99 5 3.98 5 5 5 C4.67 6.32 4.34 7.64 4 9 C1.03 8.505 1.03 8.505 -2 8 C-3.125 4.25 -3.125 4.25 -2 2 C-1.34 2 -0.68 2 0 2 C0 1.34 0 0.68 0 0 Z " fill="#43A2F6" transform="translate(269,155)"/>
<path d="M0 0 C2 4 2 4 2 6 C5.96 6.33 9.92 6.66 14 7 C14.33 7.99 14.66 8.98 15 10 C11.37 9.67 7.74 9.34 4 9 C3.67 9.66 3.34 10.32 3 11 C2.01 10.67 1.02 10.34 0 10 C0 6.7 0 3.4 0 0 Z " fill="#315473" transform="translate(281,163)"/>
<path d="M0 0 C0.33 0 0.66 0 1 0 C1.34004204 6.73786997 1.70714657 14.05196633 -2 20 C-4.109375 20.7421875 -4.109375 20.7421875 -6 21 C-5.71382813 20.34644531 -5.42765625 19.69289062 -5.1328125 19.01953125 C-3.73751183 15.30033326 -2.80566647 11.54459547 -1.875 7.6875 C-1.69324219 6.94693359 -1.51148438 6.20636719 -1.32421875 5.44335938 C-0.8795787 3.629696 -0.43934255 1.81495392 0 0 Z " fill="#5F778F" transform="translate(346,153)"/>
<path d="M0 0 C1.93719378 -0.05406122 3.87481921 -0.09282025 5.8125 -0.125 C6.89144531 -0.14820313 7.97039062 -0.17140625 9.08203125 -0.1953125 C12 0 12 0 15 2 C14.34 2 13.68 2 13 2 C12.67 7.28 12.34 12.56 12 18 C11.01 18 10.02 18 9 18 C9.33 17.67 9.66 17.34 10 17 C10.07271741 14.64686445 10.08370868 12.29166332 10.0625 9.9375 C10.05347656 8.64714844 10.04445313 7.35679687 10.03515625 6.02734375 C10.02355469 5.02832031 10.01195312 4.02929688 10 3 C6.7 2.34 3.4 1.68 0 1 C0 0.67 0 0.34 0 0 Z " fill="#325573" transform="translate(286,151)"/>
<path d="M0 0 C1.7744761 2.66171415 2.85029181 4.91989066 4 7.875 C4.495 9.13957031 4.495 9.13957031 5 10.4296875 C5.33 11.27789062 5.66 12.12609375 6 13 C6.56847656 14.32451172 6.56847656 14.32451172 7.1484375 15.67578125 C8.10595489 18.28918882 7.95124518 19.43163801 7 22 C6.67 21.01 6.34 20.02 6 19 C5.34 19 4.68 19 4 19 C3.87625 17.865625 3.7525 16.73125 3.625 15.5625 C3.41875 14.386875 3.2125 13.21125 3 12 C2.34 11.67 1.68 11.34 1 11 C0.5859375 8.49609375 0.5859375 8.49609375 0.375 5.4375 C0.30023438 4.42558594 0.22546875 3.41367187 0.1484375 2.37109375 C0.09945313 1.58863281 0.05046875 0.80617188 0 0 Z " fill="#4C6981" transform="translate(312,278)"/>
<path d="M0 0 C2.98619537 2.55959603 4.48551562 5.3940848 6 9 C6.1875 11.875 6.1875 11.875 6 14 C5.67 13.01 5.34 12.02 5 11 C4.34 11 3.68 11 3 11 C2.54625 10.195625 2.0925 9.39125 1.625 8.5625 C0.26579005 5.84763807 0.26579005 5.84763807 -2.1875 5.1875 C-2.785625 5.125625 -3.38375 5.06375 -4 5 C-4 4.34 -4 3.68 -4 3 C-3.34 3 -2.68 3 -2 3 C-1.67 2.34 -1.34 1.68 -1 1 C-0.67 0.67 -0.34 0.34 0 0 Z " fill="#063560" transform="translate(342,100)"/>
<path d="M0 0 C0 0.66 0 1.32 0 2 C0.99 2 1.98 2 3 2 C2 4 2 4 0 7 C-6.52307692 5.52307692 -6.52307692 5.52307692 -8.9375 2.875 C-9.288125 2.25625 -9.63875 1.6375 -10 1 C-6.59437148 0.22157062 -3.49234244 -0.09978121 0 0 Z " fill="#093459" transform="translate(317,80)"/>
<path d="M0 0 C0.99 0 1.98 0 3 0 C1.44966581 5.89126992 -1.54911639 11.02060001 -5 16 C-5.66 16.33 -6.32 16.66 -7 17 C-6.39301257 12.87248551 -4.96189209 9.6678852 -3 6 C-2.34 6 -1.68 6 -1 6 C-0.67 4.02 -0.34 2.04 0 0 Z " fill="#4E6D85" transform="translate(352,177)"/>
<path d="M0 0 C0.33 1.32 0.66 2.64 1 4 C0.34 4 -0.32 4 -1 4 C-1.66 5.32 -2.32 6.64 -3 8 C-4.32 7.67 -5.64 7.34 -7 7 C-7 6.34 -7 5.68 -7 5 C-7.66 5 -8.32 5 -9 5 C-9 4.34 -9 3.68 -9 3 C-3 0 -3 0 0 0 Z " fill="#05345F" transform="translate(224,104)"/>
<path d="M0 0 C4 2 4 2 5.84375 3.03125 C8.22093977 4.09926279 10.16200114 4.39664716 12.75 4.625 C13.94882813 4.73714844 13.94882813 4.73714844 15.171875 4.8515625 C15.77515625 4.90054687 16.3784375 4.94953125 17 5 C17 5.33 17 5.66 17 6 C11.06 6.33 5.12 6.66 -1 7 C-0.67 4.69 -0.34 2.38 0 0 Z " fill="#1B4262" transform="translate(95,313)"/>
<path d="M0 0 C-0.33 0.99 -0.66 1.98 -1 3 C-5.43795241 4.4053516 -9.32130569 5.29241839 -14 5 C-13.34 4.34 -12.68 3.68 -12 3 C-11.01 3 -10.02 3 -9 3 C-9 2.01 -9 1.02 -9 0 C-5.35959446 -1.21346851 -3.64040554 -1.21346851 0 0 Z " fill="#09355B" transform="translate(302,218)"/>
<path d="M0 0 C0.66 0.33 1.32 0.66 2 1 C2 2.98 2 4.96 2 7 C1.01 7 0.02 7 -1 7 C-1.66 8.32 -2.32 9.64 -3 11 C-6.125 4.375 -6.125 4.375 -5 1 C-4.01 1 -3.02 1 -2 1 C-1.34 0.67 -0.68 0.34 0 0 Z " fill="#365E7B" transform="translate(343,132)"/>
<path d="M0 0 C0.66 0.99 1.32 1.98 2 3 C1.67 3.33 1.34 3.66 1 4 C1.66 4.66 2.32 5.32 3 6 C0.03 8.475 0.03 8.475 -3 11 C-4.41441874 8.17116253 -4.31900332 6.12623255 -4 3 C-2 1.125 -2 1.125 0 0 Z " fill="#1F4B6F" transform="translate(230,105)"/>
<path d="M0 0 C1.17539996 0.92652701 2.34010577 1.86663387 3.5 2.8125 C4.1496875 3.33457031 4.799375 3.85664062 5.46875 4.39453125 C7 6 7 6 7 9 C5.35 9.66 3.7 10.32 2 11 C1.87625 10.030625 1.7525 9.06125 1.625 8.0625 C1.41875 7.051875 1.2125 6.04125 1 5 C0.34 4.67 -0.32 4.34 -1 4 C-0.34 4 0.32 4 1 4 C0.67 2.68 0.34 1.36 0 0 Z " fill="#31557E" transform="translate(336,92)"/>
<path d="M0 0 C1.65 0.33 3.3 0.66 5 1 C5.33 2.32 5.66 3.64 6 5 C5.01 5.33 4.02 5.66 3 6 C2.67 6.99 2.34 7.98 2 9 C0.4375 7.875 0.4375 7.875 -1 6 C-0.6875 2.8125 -0.6875 2.8125 0 0 Z " fill="#08345D" transform="translate(338,127)"/>
<path d="M0 0 C0.66 0.33 1.32 0.66 2 1 C1.01 2.485 1.01 2.485 0 4 C-2.625 4.1875 -2.625 4.1875 -5 4 C-5.10634766 4.93585938 -5.10634766 4.93585938 -5.21484375 5.890625 C-6 8 -6 8 -8.06640625 9.046875 C-8.89011719 9.27890625 -9.71382812 9.5109375 -10.5625 9.75 C-11.80193359 10.11351563 -11.80193359 10.11351563 -13.06640625 10.484375 C-14.02353516 10.73960938 -14.02353516 10.73960938 -15 11 C-10.34766866 6.21843723 -6.16017227 2.67833577 0 0 Z " fill="#386A8F" transform="translate(261,107)"/>
<path d="M0 0 C1.26650391 0.00966797 1.26650391 0.00966797 2.55859375 0.01953125 C3.43128906 0.03628906 4.30398438 0.05304688 5.203125 0.0703125 C6.53537109 0.08384766 6.53537109 0.08384766 7.89453125 0.09765625 C10.08100558 0.12116673 12.26692594 0.15402751 14.453125 0.1953125 C14.453125 0.5253125 14.453125 0.8553125 14.453125 1.1953125 C11.47460938 1.48828125 11.47460938 1.48828125 8.49609375 1.78125 C6.15324358 2.12196641 6.15324358 2.12196641 3.453125 4.1953125 C2.463125 3.8653125 1.473125 3.5353125 0.453125 3.1953125 C0.453125 2.5353125 0.453125 1.8753125 0.453125 1.1953125 C-0.536875 1.8553125 -1.526875 2.5153125 -2.546875 3.1953125 C-5.734375 2.8203125 -5.734375 2.8203125 -8.546875 2.1953125 C-5.55561181 0.47325062 -3.44001787 -0.04648673 0 0 Z " fill="#4B7CA2" transform="translate(274.546875,103.8046875)"/>
<path d="M0 0 C3 1 3 1 4 3 C4.07092842 5.2072923 4.08415025 7.41667452 4.0625 9.625 C4.05347656 10.81351563 4.04445313 12.00203125 4.03515625 13.2265625 C4.02355469 14.14179688 4.01195312 15.05703125 4 16 C3.34 16 2.68 16 2 16 C2 12.7 2 9.4 2 6 C1.01 6 0.02 6 -1 6 C-1.66 5.67 -2.32 5.34 -3 5 C-2.01 3.35 -1.02 1.7 0 0 Z " fill="#064074" transform="translate(307,144)"/>
<path d="M0 0 C2.475 0.495 2.475 0.495 5 1 C5.33 2.65 5.66 4.3 6 6 C6.99 6.33 7.98 6.66 9 7 C9 7.99 9 8.98 9 10 C8.01 10.33 7.02 10.66 6 11 C2 5.25 2 5.25 2 3 C1.34 3 0.68 3 0 3 C0 2.01 0 1.02 0 0 Z " fill="#3C5D7C" transform="translate(332,101)"/>
<path d="M0 0 C0.66 0 1.32 0 2 0 C4 2 4 2 4 5 C3.68911632 6.67099977 3.35919668 8.33871537 3 10 C1.68 9.67 0.36 9.34 -1 9 C-0.67 6.03 -0.34 3.06 0 0 Z " fill="#06335E" transform="translate(222,199)"/>
<path d="M0 0 C0.33 0 0.66 0 1 0 C1 2.31 1 4.62 1 7 C0.34 7 -0.32 7 -1 7 C-1 8.98 -1 10.96 -1 13 C-1.66 13 -2.32 13 -3 13 C-3.33 14.65 -3.66 16.3 -4 18 C-5.46779153 14.1540146 -4.47366244 11.66055596 -3.125 7.875 C-2.75632813 6.82054688 -2.38765625 5.76609375 -2.0078125 4.6796875 C-1 2 -1 2 0 0 Z " fill="#617A90" transform="translate(205,121)"/>
<path d="M0 0 C0.66 0 1.32 0 2 0 C2.66 0.99 3.32 1.98 4 3 C4.66 3 5.32 3 6 3 C6.33 2.34 6.66 1.68 7 1 C7.99 1.33 8.98 1.66 10 2 C10 2.66 10 3.32 10 4 C10.66 4.33 11.32 4.66 12 5 C3.57142857 6.42857143 3.57142857 6.42857143 -1 4 C-0.67 2.68 -0.34 1.36 0 0 Z " fill="#0D3557" transform="translate(258,222)"/>
<path d="M0 0 C0.66 0.33 1.32 0.66 2 1 C1.67 2.98 1.34 4.96 1 7 C0.38125 7.12375 -0.2375 7.2475 -0.875 7.375 C-3.19120832 7.87197356 -3.19120832 7.87197356 -5 10 C-5.66 9.67 -6.32 9.34 -7 9 C-5.76465298 5.29395893 -3.80264776 3.66251537 -1 1 C-0.67 0.67 -0.34 0.34 0 0 Z " fill="#506C87" transform="translate(222,98)"/>
<path d="M0 0 C0.33 0 0.66 0 1 0 C1.33 2.97 1.66 5.94 2 9 C2.66 9 3.32 9 4 9 C4.309375 9.78375 4.61875 10.5675 4.9375 11.375 C5.92875038 13.92330128 5.92875038 13.92330128 7 16 C6.0625 18.125 6.0625 18.125 5 20 C-1.46636771 4.39910314 -1.46636771 4.39910314 0 0 Z " fill="#617F95" transform="translate(314,315)"/>
<path d="M0 0 C11.52164009 -0.55353075 11.52164009 -0.55353075 17 3 C13.91432934 4.54283533 11.35620798 3.55019803 8 3 C6.72125 2.855625 5.4425 2.71125 4.125 2.5625 C3.09375 2.376875 2.0625 2.19125 1 2 C0.67 1.34 0.34 0.68 0 0 Z " fill="#869DB2" transform="translate(286,78)"/>
<path d="M0 0 C2.25 0.25 2.25 0.25 4 1 C3.67 2.65 3.34 4.3 3 6 C1.68 5.34 0.36 4.68 -1 4 C-1.33 4.99 -1.66 5.98 -2 7 C-2.66 6.01 -3.32 5.02 -4 4 C-2.25 1.9375 -2.25 1.9375 0 0 Z " fill="#284A6A" transform="translate(443,271)"/>
<path d="M0 0 C1.9375 0.3125 1.9375 0.3125 4 1 C4.33 1.99 4.66 2.98 5 4 C3.68 4 2.36 4 1 4 C1 5.65 1 7.3 1 9 C-0.65 7.35 -2.3 5.7 -4 4 C-3.34 4 -2.68 4 -2 4 C-1.34 2.68 -0.68 1.36 0 0 Z " fill="#2A5376" transform="translate(330,92)"/>
<path d="M0 0 C1.58158962 3.00887781 2.43945339 5.63672037 3 9 C2.01 9.33 1.02 9.66 0 10 C-0.33 10.66 -0.66 11.32 -1 12 C-1.66 11.01 -2.32 10.02 -3 9 C-2.5390625 6.73828125 -2.5390625 6.73828125 -1.625 4.3125 C-1.32851562 3.50425781 -1.03203125 2.69601563 -0.7265625 1.86328125 C-0.48679688 1.24839844 -0.24703125 0.63351563 0 0 Z " fill="#274D6F" transform="translate(214,176)"/>
<path d="M0 0 C2.50037734 2.17424117 3.43628586 3.73045798 4 7 C2.02 6.34 0.04 5.68 -2 5 C-2 3.68 -2 2.36 -2 1 C-1.34 0.67 -0.68 0.34 0 0 Z " fill="#335877" transform="translate(308,271)"/>
<path d="M0 0 C0.66 0.99 1.32 1.98 2 3 C1.54625 3.5775 1.0925 4.155 0.625 4.75 C-0.84113516 6.7800333 -1.94857784 8.73539843 -3 11 C-3.66 9.68 -4.32 8.36 -5 7 C-3.35 4.69 -1.7 2.38 0 0 Z " fill="#40627C" transform="translate(214,107)"/>
<path d="M0 0 C2.56687367 3.8503105 1.83288724 5.58569763 1 10 C-0.70884005 8.37660195 -2.37446717 6.70680947 -4 5 C-4 4.34 -4 3.68 -4 3 C-3.01 3.33 -2.02 3.66 -1 4 C-0.67 2.68 -0.34 1.36 0 0 Z " fill="#385F80" transform="translate(213,190)"/>
<path d="M0 0 C0.99 0.33 1.98 0.66 3 1 C2.67 1.33 2.34 1.66 2 2 C1.76572222 4.01594582 1.58663876 6.038474 1.4375 8.0625 C1.31181641 9.71958984 1.31181641 9.71958984 1.18359375 11.41015625 C1.12300781 12.26480469 1.06242187 13.11945313 1 14 C1.66 14.33 2.32 14.66 3 15 C1.68 15 0.36 15 -1 15 C-1.02685412 12.68756208 -1.04632841 10.3750373 -1.0625 8.0625 C-1.07410156 6.77472656 -1.08570313 5.48695313 -1.09765625 4.16015625 C-1 1 -1 1 0 0 Z " fill="#5B7A92" transform="translate(260,133)"/>
<path d="M0 0 C2.97 0.495 2.97 0.495 6 1 C5.67 1.99 5.34 2.98 5 4 C2.4375 5.1875 2.4375 5.1875 0 6 C0 4.02 0 2.04 0 0 Z " fill="#0E3961" transform="translate(331,96)"/>
<path d="M0 0 C4.95 0.33 9.9 0.66 15 1 C15 1.99 15 2.98 15 4 C14.01 3.67 13.02 3.34 12 3 C9.93854893 2.931009 7.87498599 2.91532273 5.8125 2.9375 C4.72582031 2.94652344 3.63914063 2.95554687 2.51953125 2.96484375 C1.68808594 2.97644531 0.85664063 2.98804688 0 3 C0 2.01 0 1.02 0 0 Z " fill="#0F3454" transform="translate(237,332)"/>
<path d="M0 0 C1.62600941 0.0870005 3.25089678 0.1951781 4.875 0.3125 C5.77992188 0.37050781 6.68484375 0.42851562 7.6171875 0.48828125 C10 1 10 1 12 4 C3.96428571 3.33035714 3.96428571 3.33035714 0 0 Z " fill="#527189" transform="translate(254,217)"/>
<path d="M0 0 C0.66 0.33 1.32 0.66 2 1 C-0.21934164 4.32901247 -1.34683329 4.75023244 -5 6 C-3.63016497 2.83884224 -3.0109362 2.0072908 0 0 Z M-6 6 C-6 6.99 -6 7.98 -6 9 C-6.99 9.66 -7.98 10.32 -9 11 C-8.625 9.0625 -8.625 9.0625 -8 7 C-7.34 6.67 -6.68 6.34 -6 6 Z " fill="#023B6D" transform="translate(262,125)"/>
<path d="M0 0 C4.30764815 1.56641751 8.06171464 3.68336156 12 6 C11.34 6.66 10.68 7.32 10 8 C10 7.34 10 6.68 10 6 C7.69 5.67 5.38 5.34 3 5 C3 4.01 3 3.02 3 2 C2.01 2 1.02 2 0 2 C0 1.34 0 0.68 0 0 Z " fill="#5C7692" transform="translate(317,80)"/>
<path d="M0 0 C0.99 0.33 1.98 0.66 3 1 C1.93106782 2.03590338 0.84421512 3.05333942 -0.25 4.0625 C-1.15492188 4.91521484 -1.15492188 4.91521484 -2.078125 5.78515625 C-4 7 -4 7 -6.234375 6.68359375 C-6.81703125 6.45800781 -7.3996875 6.23242188 -8 6 C-7.01 5.67 -6.02 5.34 -5 5 C-4.34 4.01 -3.68 3.02 -3 2 C-2.01 2 -1.02 2 0 2 C0 1.34 0 0.68 0 0 Z " fill="#073E6E" transform="translate(298,173)"/>
<path d="M0 0 C2 3 4 6 6 9 C5.67 9.66 5.34 10.32 5 11 C3.68 10.67 2.36 10.34 1 10 C0.67 6.7 0.34 3.4 0 0 Z " fill="#5A7790" transform="translate(221,166)"/>
<path d="M0 0 C0.66 1.32 1.32 2.64 2 4 C0.25 5.5625 0.25 5.5625 -2 7 C-4.25 6.6875 -4.25 6.6875 -6 6 C-5.34 6 -4.68 6 -4 6 C-3.67 5.01 -3.34 4.02 -3 3 C-2.01 3 -1.02 3 0 3 C0 2.01 0 1.02 0 0 Z " fill="#6D8698" transform="translate(121,312)"/>
<path d="M0 0 C0.66 1.32 1.32 2.64 2 4 C-2.455 4.495 -2.455 4.495 -7 5 C-6.67 4.01 -6.34 3.02 -6 2 C-2.9375 0.8125 -2.9375 0.8125 0 0 Z " fill="#0D4A7F" transform="translate(285,193)"/>
<path d="M0 0 C0.99 0.33 1.98 0.66 3 1 C2.25 3.9375 2.25 3.9375 1 7 C-1.125 7.875 -1.125 7.875 -3 8 C-2.690625 7.236875 -2.38125 6.47375 -2.0625 5.6875 C-1.32106407 3.81210323 -0.63771783 1.91315348 0 0 Z " fill="#395E7A" transform="translate(343,166)"/>
<path d="M0 0 C2.64 0.33 5.28 0.66 8 1 C8 1.99 8 2.98 8 4 C7.01 4.33 6.02 4.66 5 5 C4.67 3.68 4.34 2.36 4 1 C3.34 1 2.68 1 2 1 C1.67 1.99 1.34 2.98 1 4 C0.67 2.68 0.34 1.36 0 0 Z " fill="#385A7C" transform="translate(256,221)"/>
<path d="M0 0 C1.65 0.33 3.3 0.66 5 1 C4.67 2.32 4.34 3.64 4 5 C3.01 5 2.02 5 1 5 C1 4.34 1 3.68 1 3 C0.34 2.67 -0.32 2.34 -1 2 C-0.67 1.34 -0.34 0.68 0 0 Z " fill="#22486C" transform="translate(240,213)"/>
<path d="M0 0 C0.33 0 0.66 0 1 0 C1.33 2.97 1.66 5.94 2 9 C0.68 9 -0.64 9 -2 9 C-1.41196203 5.97580475 -0.77321882 2.98241547 0 0 Z " fill="#0A3557" transform="translate(343,134)"/>
<path d="M0 0 C0.99 0.33 1.98 0.66 3 1 C4.47666292 4.49029418 4.07164685 8.27436386 4 12 C2.09681116 9.14521674 1.5380901 7.58058692 0.875 4.3125 C0.70742188 3.50425781 0.53984375 2.69601563 0.3671875 1.86328125 C0.24601562 1.24839844 0.12484375 0.63351563 0 0 Z " fill="#406381" transform="translate(342,118)"/>
<path d="M0 0 C2.31 0 4.62 0 7 0 C7 0.66 7 1.32 7 2 C8.65 2 10.3 2 12 2 C12 2.33 12 2.66 12 3 C7.45194365 3.17835515 4.1205746 2.99785435 0 1 C0 0.67 0 0.34 0 0 Z " fill="#36668D" transform="translate(266,195)"/>
<path d="M0 0 C1.32 0.33 2.64 0.66 4 1 C-1.625 5.875 -1.625 5.875 -5 7 C-5 6.34 -5 5.68 -5 5 C-4.34 5 -3.68 5 -3 5 C-3 4.34 -3 3.68 -3 3 C-2.01 3 -1.02 3 0 3 C0 2.01 0 1.02 0 0 Z " fill="#5E87A7" transform="translate(308,185)"/>
<path d="M0 0 C1.29640378 0.59393382 2.58698839 1.20057989 3.875 1.8125 C4.59429687 2.14894531 5.31359375 2.48539062 6.0546875 2.83203125 C8 4 8 4 10 7 C9.01 7.495 9.01 7.495 8 8 C7.67 7.34 7.34 6.68 7 6 C5.34948712 4.88365848 5.34948712 4.88365848 3.4375 3.875 C2.303125 3.25625 1.16875 2.6375 0 2 C0 1.34 0 0.68 0 0 Z " fill="#4E799B" transform="translate(299,108)"/>
<path d="M0 0 C-4.95 2.97 -4.95 2.97 -10 6 C-10 5.01 -10 4.02 -10 3 C-9.01 3 -8.02 3 -7 3 C-6.67 2.01 -6.34 1.02 -6 0 C-3.42525708 -0.99667468 -2.51072708 -1.25536354 0 0 Z " fill="#677D91" transform="translate(246,102)"/>
<path d="M0 0 C1.32 0.66 2.64 1.32 4 2 C0.04 3.98 0.04 3.98 -4 6 C-4 4.68 -4 3.36 -4 2 C-2.68 2.33 -1.36 2.66 0 3 C0 2.01 0 1.02 0 0 Z " fill="#516C85" transform="translate(321,211)"/>
<path d="M0 0 C2.5 1.375 2.5 1.375 5 3 C5 3.66 5 4.32 5 5 C5.99 5.33 6.98 5.66 8 6 C7.01 6.33 6.02 6.66 5 7 C3.29115995 5.37660195 1.62553283 3.70680947 0 2 C0 1.34 0 0.68 0 0 Z " fill="#59798E" transform="translate(235,187)"/>
<path d="M0 0 C0.66 0 1.32 0 2 0 C1.67 2.31 1.34 4.62 1 7 C-0.32 5.68 -1.64 4.36 -3 3 C-2.67 2.34 -2.34 1.68 -2 1 C-1.34 1.33 -0.68 1.66 0 2 C0 1.34 0 0.68 0 0 Z " fill="#3F657E" transform="translate(336,126)"/>
<path d="M0 0 C0.99 0.495 0.99 0.495 2 1 C2 1.66 2 2.32 2 3 C2.66 3 3.32 3 4 3 C4.66 4.65 5.32 6.3 6 8 C3.5625 6.8125 3.5625 6.8125 1 5 C0.1875 2.3125 0.1875 2.3125 0 0 Z " fill="#6587A8" transform="translate(314,119)"/>
<path d="M0 0 C0.66 0.33 1.32 0.66 2 1 C1.01 2.485 1.01 2.485 0 4 C-2.625 4.1875 -2.625 4.1875 -5 4 C-5.33 4.66 -5.66 5.32 -6 6 C-6.66 5.34 -7.32 4.68 -8 4 C-6.71349294 3.30289269 -5.42059335 2.61757124 -4.125 1.9375 C-3.40570313 1.55464844 -2.68640625 1.17179687 -1.9453125 0.77734375 C-1.30335938 0.52082031 -0.66140625 0.26429687 0 0 Z " fill="#527A9F" transform="translate(261,107)"/>
<path d="M0 0 C0.99 0.495 0.99 0.495 2 1 C2 1.66 2 2.32 2 3 C2.66 3 3.32 3 4 3 C4.66 4.32 5.32 5.64 6 7 C5.34 7.66 4.68 8.32 4 9 C0 2.25 0 2.25 0 0 Z " fill="#47657E" transform="translate(344,101)"/>
<path d="M0 0 C2.64 0 5.28 0 8 0 C8.33 0.66 8.66 1.32 9 2 C6.69 2.33 4.38 2.66 2 3 C1.34 2.01 0.68 1.02 0 0 Z " fill="#154D7D" transform="translate(282,105)"/>
<path d="M0 0 C3.3 0 6.6 0 10 0 C6.39338934 1.80330533 3.91606575 2.46599103 0 3 C0 2.01 0 1.02 0 0 Z " fill="#587590" transform="translate(254,95)"/>
<path d="M0 0 C1.32 0.33 2.64 0.66 4 1 C4 2.32 4 3.64 4 5 C2.68 5 1.36 5 0 5 C0 3.35 0 1.7 0 0 Z " fill="#0B345B" transform="translate(250,220)"/>
<path d="M0 0 C0.66 0 1.32 0 2 0 C2 0.99 2 1.98 2 3 C3.32 3.33 4.64 3.66 6 4 C5.01 5.485 5.01 5.485 4 7 C2.35 5.02 0.7 3.04 -1 1 C-0.67 0.67 -0.34 0.34 0 0 Z " fill="#55758D" transform="translate(216,201)"/>
<path d="M0 0 C0.33 0 0.66 0 1 0 C1.1875 3.375 1.1875 3.375 1 7 C0.01 7.66 -0.98 8.32 -2 9 C-1.125 2.25 -1.125 2.25 0 0 Z " fill="#2E506C" transform="translate(208,116)"/>
<path d="M0 0 C1.98 0.99 1.98 0.99 4 2 C3.625 3.9375 3.625 3.9375 3 6 C2.01 6.495 2.01 6.495 1 7 C0.67 4.69 0.34 2.38 0 0 Z " fill="#2C506F" transform="translate(226,109)"/>
<path d="M0 0 C0.66 0.33 1.32 0.66 2 1 C2 1.99 2 2.98 2 4 C2.66 4.66 3.32 5.32 4 6 C1.69 6 -0.62 6 -3 6 C-3 5.34 -3 4.68 -3 4 C-2.34 3.67 -1.68 3.34 -1 3 C-0.67 2.01 -0.34 1.02 0 0 Z " fill="#264B6B" transform="translate(289,90)"/>
<path d="M0 0 C1.32 0 2.64 0 4 0 C4 0.66 4 1.32 4 2 C5.32 2.33 6.64 2.66 8 3 C7.67 3.99 7.34 4.98 7 6 C5.83054208 5.19152271 4.66449539 4.37810888 3.5 3.5625 C2.8503125 3.11003906 2.200625 2.65757813 1.53125 2.19140625 C1.0259375 1.79824219 0.520625 1.40507813 0 1 C0 0.67 0 0.34 0 0 Z " fill="#5B788D" transform="translate(316,88)"/>
<path d="M0 0 C2.88575819 0.39803561 3.82189513 0.79009069 5.75 3.0625 C6.1625 3.701875 6.575 4.34125 7 5 C4.0625 4.1875 4.0625 4.1875 1 3 C0.67 2.01 0.34 1.02 0 0 Z " fill="#385C78" transform="translate(187,271)"/>
<path d="M0 0 C2.96175123 0.61277612 4.38058783 1.25372522 7 3 C7 3.66 7 4.32 7 5 C4.0625 4.1875 4.0625 4.1875 1 3 C0.67 2.01 0.34 1.02 0 0 Z " fill="#255371" transform="translate(247,212)"/>
<path d="M0 0 C4.67692308 1.47692308 4.67692308 1.47692308 6.3125 4.125 C6.539375 4.74375 6.76625 5.3625 7 6 C2.25 4.125 2.25 4.125 0 3 C0 2.01 0 1.02 0 0 Z " fill="#2D4F6F" transform="translate(223,175)"/>
</svg>
